<?xml version="1.0" encoding="utf-8"?>
<!-- Generator: Adobe Illustrator 27.5.0, SVG Export Plug-In . SVG Version: 6.00 Build 0)  -->
<svg version="1.1" id="Layer_1" xmlns="http://www.w3.org/2000/svg" xmlns:xlink="http://www.w3.org/1999/xlink" x="0px" y="0px"
	 viewBox="0 0 2444.835 2000" style="enable-background:new 0 0 2444.835 2000;" xml:space="preserve">
<rect x="0" y="0" style="fill:none;" width="2444.835" height="2000"/>
<g>
	<g>
		<g>
			<path style="fill:#EAFCFC;" d="M2018.542,1852.126c402.237-321.03,377.975-1182.699,55.92-1436.04
				c-225.325-177.249-443.305-15.678-579.845-116.325c-348.874-257.165-653.783-172.924-881.303-44.924
				c-393.147,221.179,21.448,377.726-229.647,545.587c-172.877,115.572-129.346,281.641-79.83,372.697
				c29.847,54.886,108.595,129.142-25.782,282.199c-111.875,127.428-43.262,355.138,53.645,396.807H2018.542z"/>
		</g>
	</g>
	<g>
		<path style="fill:#13375B;" d="M1418.695,502.251L1418.695,502.251c-0.056-0.02-0.112-0.037-0.168-0.057
			c-1.575-0.566-3.179-1.07-4.799-1.537c-0.552-0.159-1.102-0.324-1.66-0.472c-0.586-0.154-1.18-0.292-1.771-0.433
			c-0.601-0.144-1.201-0.287-1.808-0.417c-0.571-0.122-1.146-0.234-1.724-0.344c-0.645-0.123-1.292-0.24-1.944-0.347
			c-0.552-0.091-1.106-0.178-1.662-0.257c-0.703-0.101-1.411-0.188-2.119-0.269c-0.516-0.059-1.029-0.121-1.549-0.171
			c-0.809-0.078-1.624-0.134-2.441-0.186c-0.43-0.027-0.857-0.065-1.288-0.085c-1.255-0.06-2.516-0.096-3.786-0.096H809.745
			c-1.355,0-2.702,0.034-4.04,0.102c-2.676,0.136-5.318,0.405-7.916,0.803c-1.299,0.198-2.588,0.429-3.866,0.69
			c-33.22,6.798-58.798,34.577-62.282,68.888c-0.268,2.639-0.406,5.317-0.406,8.027v968.878v221.044
			c0,33.978,21.587,62.908,51.793,73.84v0.001c0.133,0.048,0.27,0.089,0.403,0.136c1.498,0.534,3.02,1.013,4.558,1.456
			c0.554,0.16,1.106,0.325,1.666,0.473c0.586,0.155,1.179,0.292,1.771,0.434c0.601,0.143,1.202,0.287,1.808,0.417
			c0.571,0.122,1.146,0.233,1.722,0.343c0.646,0.124,1.294,0.24,1.945,0.348c0.552,0.091,1.106,0.178,1.662,0.257
			c0.703,0.101,1.41,0.188,2.119,0.269c0.515,0.059,1.03,0.122,1.548,0.171c0.81,0.077,1.625,0.133,2.442,0.186
			c0.43,0.027,0.857,0.064,1.288,0.085c1.255,0.059,2.516,0.095,3.785,0.095h582.231c2.711,0,5.389-0.137,8.028-0.405
			c36.95-3.753,66.325-33.128,70.077-70.078c0.268-2.639,0.405-5.317,0.405-8.027V797.135V576.091
			C1470.487,542.113,1448.9,513.182,1418.695,502.251z"/>
		<rect x="759.192" y="600.496" style="fill:#D4EEFC;" width="663.134" height="1132.935"/>
		<path style="opacity:0.6;fill:#FFFFFF;" d="M1187.663,562.314H998.8c-2.625,0-4.754-2.128-4.754-4.753v-4.69
			c0-2.625,2.128-4.753,4.754-4.753h188.863c2.625,0,4.754,2.128,4.754,4.753v4.689
			C1192.417,560.185,1190.289,562.314,1187.663,562.314z"/>
		<rect x="759.192" y="600.496" style="opacity:0.2;fill:#3CB4C5;" width="663.134" height="60.123"/>
		<rect x="759.192" y="1685.896" style="fill:#A4DEE3;" width="663.134" height="47.535"/>
	</g>
	<g>
		<g>
			<path style="fill:#D9533F;" d="M1827.735,333.673l-11.807,66.375l48.953-32.54l148.427-67.747l-112.729,5.323
				c0,0-57.81,11.369-61.029,14.035C1836.331,321.785,1827.735,333.673,1827.735,333.673z"/>
			<polygon style="fill:#F47458;" points="1779.798,291.161 2013.309,299.761 1827.735,333.673 			"/>
			<polygon style="fill:#F47458;" points="1899.811,404.154 1840.815,352.323 2013.309,299.761 			"/>
		</g>
		<g>
			<g>
				<path style="fill:#13375B;" d="M1491.788,559.298c0.94-5.283,2.194-10.605,3.727-15.82c1.412-4.801,3.094-9.625,4.999-14.336
					l5.102,2.063c-1.839,4.545-3.46,9.196-4.821,13.825c-1.477,5.023-2.684,10.147-3.589,15.234
					c-0.267,1.495-0.509,2.993-0.728,4.495l-5.446-0.795C1491.264,562.378,1491.518,560.808,1491.788,559.298z M1517.526,497.39
					c6.477-9.602,14.105-18.986,22.675-27.893l3.965,3.815c-8.35,8.679-15.777,17.815-22.077,27.156L1517.526,497.39z
					 M1692.333,494.118c-0.311-0.216-0.618-0.436-0.923-0.659l3.254-4.437c0.266,0.195,0.535,0.388,0.76,0.546
					c0,0,0.151,0.082,0.545,0.199c2.95,0.867,10.823,1.211,15.352-1.226c3.807-2.048,6.949-5.308,9.338-9.691l4.831,2.634
					c-2.867,5.262-6.867,9.378-11.564,11.903c-6.282,3.379-15.807,2.748-19.51,1.659
					C1693.542,494.787,1692.859,494.483,1692.333,494.118z M1566.922,445.54c9.259-7.201,19.235-13.984,29.651-20.161l2.807,4.733
					c-10.219,6.059-20.002,12.711-29.079,19.771L1566.922,445.54z M1672.272,450.261c0.22-5.275,1.132-10.676,2.713-16.054
					c0.85-2.892,1.909-5.827,3.147-8.726l5.06,2.161c-1.152,2.701-2.138,5.432-2.927,8.117c-1.454,4.948-2.294,9.904-2.494,14.731
					c-0.142,3.427,0.069,6.897,0.63,10.315l-5.43,0.891C1672.348,457.907,1672.114,454.06,1672.272,450.261z M1699.913,423.43
					l-0.683-0.363l2.557-4.873l0.741,0.395c11.099,5.995,20.056,15.533,24.577,26.171l-5.064,2.152
					C1718,437.401,1709.935,428.842,1699.913,423.43z M1630.556,412.907c6.185-1.595,17.435-4.273,23.292-4.293
					c4.548-0.016,8.71,0.121,12.721,0.421l-0.41,5.487c-3.867-0.288-7.887-0.42-12.292-0.405
					c-3.841,0.013-11.837,1.514-21.938,4.118L1630.556,412.907z M1698.286,395.293c8.253-8.846,17.786-16.428,28.332-22.536
					l2.758,4.762c-10.077,5.836-19.183,13.078-27.067,21.527L1698.286,395.293z"/>
			</g>
			<g>
				<path style="fill:#13375B;" d="M1761.531,364.831c5.853-1.335,11.74-2.179,17.502-2.507l-0.314-5.494
					c-6.066,0.346-12.26,1.233-18.411,2.636L1761.531,364.831z"/>
			</g>
		</g>
	</g>
	<path style="fill:#60BDA8;" d="M573.151,392.946l-11.627,13l4.118,16.947c0.332,1.369-1.049,2.526-2.338,1.957l-15.956-7.041
		l-14.845,9.153c-1.199,0.739-2.726-0.218-2.584-1.619l1.765-17.351l-13.292-11.291c-1.074-0.912-0.636-2.66,0.741-2.957
		l17.047-3.683l6.63-16.131c0.536-1.303,2.333-1.426,3.041-0.209l8.771,15.075l17.391,1.321
		C573.418,390.225,574.091,391.896,573.151,392.946z"/>
	<path style="fill:#F7CC7F;" d="M1507.11,226.295l-15.697,17.551l5.559,22.88c0.448,1.849-1.416,3.41-3.157,2.642l-21.542-9.505
		l-20.042,12.358c-1.619,0.998-3.681-0.294-3.488-2.186l2.383-23.426l-17.946-15.243c-1.45-1.231-0.859-3.591,1.001-3.992
		l23.016-4.972l8.952-21.778c0.723-1.759,3.15-1.926,4.106-0.282l11.841,20.353l23.479,1.783
		C1507.471,222.621,1508.379,224.877,1507.11,226.295z"/>
	<path style="fill:#466EB6;" d="M829.952,301.405l12.53-20.412l-10.089-4.076c-2.208-0.892-3.275-3.405-2.383-5.613l0,0
		c0.892-2.208,3.405-3.275,5.613-2.382l11.634,4.7l11.202-18.33l-10.776-4.353c-2.208-0.892-3.274-3.405-2.383-5.613l0,0
		c0.891-2.207,3.405-3.274,5.612-2.382l12.322,4.978l13.011-20.991c1.105-1.783,3.334-2.512,5.279-1.726l1.882,0.76
		c2.469,0.998,3.452,3.973,2.064,6.245l-12.1,19.807l17.865,7.218l13.01-20.991c1.106-1.784,3.335-2.513,5.28-1.726l2.054,0.829
		c2.469,0.998,3.452,3.973,2.064,6.245l-12.1,19.807l10.089,4.076c2.208,0.892,3.275,3.405,2.383,5.613l0,0
		c-0.891,2.207-3.404,3.274-5.612,2.383l-11.634-4.701l-11.03,18.4l10.776,4.353c2.207,0.892,3.274,3.405,2.383,5.613l0,0
		c-0.892,2.208-3.405,3.274-5.612,2.382l-12.322-4.978l-13.289,21.648c-1.101,1.794-3.337,2.53-5.289,1.742l-2.2-0.889
		c-2.473-0.999-3.454-3.981-2.059-6.253l12.53-20.412l-17.865-7.218l-13.289,21.647c-1.102,1.794-3.337,2.531-5.29,1.742l-2.2-0.889
		C829.539,306.659,828.557,303.678,829.952,301.405z M875.431,285.005l11.201-18.33l-17.865-7.218l-11.202,18.33L875.431,285.005z"
		/>
	<path style="fill:#F7CC7F;" d="M2112.195,587.104l9.709-15.816l-7.818-3.158c-1.711-0.691-2.538-2.638-1.846-4.349l0,0
		c0.691-1.711,2.638-2.538,4.349-1.846l9.015,3.642l8.68-14.203l-8.35-3.373c-1.711-0.691-2.537-2.638-1.846-4.349l0,0
		c0.691-1.71,2.638-2.537,4.349-1.846l9.548,3.857l10.082-16.265c0.856-1.382,2.583-1.947,4.09-1.338l1.458,0.589
		c1.913,0.773,2.675,3.078,1.599,4.839l-9.376,15.348l13.844,5.593l10.081-16.265c0.857-1.382,2.584-1.947,4.091-1.338l1.591,0.643
		c1.913,0.773,2.675,3.078,1.599,4.839l-9.376,15.348l7.817,3.158c1.711,0.691,2.538,2.638,1.846,4.349l0,0
		c-0.69,1.71-2.638,2.537-4.349,1.846l-9.015-3.642l-8.547,14.257l8.35,3.373c1.71,0.691,2.537,2.638,1.846,4.349l0,0
		c-0.691,1.711-2.638,2.537-4.349,1.846l-9.548-3.857l-10.298,16.774c-0.853,1.39-2.585,1.961-4.098,1.35l-1.705-0.689
		c-1.916-0.774-2.677-3.084-1.596-4.845l9.709-15.816l-13.844-5.593l-10.297,16.774c-0.854,1.39-2.586,1.961-4.099,1.35
		l-1.705-0.689C2111.875,591.175,2111.114,588.865,2112.195,587.104z M2147.435,574.396l8.68-14.203l-13.843-5.593l-8.68,14.204
		L2147.435,574.396z"/>
	<g>
		<path style="fill:#20876C;" d="M1651.61,1844.523h-617.145c-20.487,0-37.096-16.608-37.096-37.096V697.715
			c0-20.487,16.608-37.096,37.096-37.096h617.145c20.487,0,37.096,16.608,37.096,37.096v1109.712
			C1688.706,1827.915,1672.098,1844.523,1651.61,1844.523z"/>
		<g>
			<rect x="1033.265" y="823.712" style="fill:#D9D9D9;" width="11.106" height="293.905"/>
			<g>
				<polygon style="fill:#31A88A;" points="1195.019,1329.522 1134.929,1329.522 1134.757,1329.423 1055.916,1283.551 
					1056.646,1282.116 1135.316,1327.889 1195.019,1327.889 				"/>
			</g>
			<g>
				<polygon style="fill:#31A88A;" points="1195.019,1380.591 1134.929,1380.591 1134.757,1380.493 1055.916,1334.619 
					1056.646,1333.184 1135.316,1378.959 1195.019,1378.959 				"/>
			</g>
			<g>
				<polygon style="fill:#31A88A;" points="1195.019,1437.74 1134.929,1437.74 1134.757,1437.641 1055.916,1391.767 
					1056.646,1390.332 1135.316,1436.107 1195.019,1436.107 				"/>
			</g>
			<g>
				<polygon style="fill:#31A88A;" points="1195.019,1491.495 1134.929,1491.495 1134.757,1491.396 1055.916,1445.522 
					1056.646,1444.088 1135.316,1489.862 1195.019,1489.862 				"/>
			</g>
			<rect x="1040.105" y="1328.706" style="fill:#09362D;" width="18.084" height="10.392"/>
			<rect x="1040.105" y="1320.535" style="fill:#D9D9D9;" width="18.084" height="8.171"/>
			<rect x="1040.105" y="1339.098" style="fill:#D9D9D9;" width="18.084" height="8.171"/>
			<rect x="1040.105" y="1385.854" style="fill:#09362D;" width="18.084" height="10.392"/>
			<rect x="1040.105" y="1377.684" style="fill:#D9D9D9;" width="18.084" height="8.17"/>
			<rect x="1040.105" y="1396.246" style="fill:#D9D9D9;" width="18.084" height="8.17"/>
			<rect x="1040.105" y="1439.609" style="fill:#09362D;" width="18.084" height="10.392"/>
			<rect x="1040.105" y="1431.439" style="fill:#D9D9D9;" width="18.084" height="8.171"/>
			<rect x="1040.105" y="1450.001" style="fill:#D9D9D9;" width="18.084" height="8.171"/>
			<rect x="1040.105" y="1277.637" style="fill:#09362D;" width="18.084" height="10.392"/>
			<rect x="1040.105" y="1269.467" style="fill:#D9D9D9;" width="18.084" height="8.17"/>
			<rect x="1040.105" y="1288.029" style="fill:#D9D9D9;" width="18.084" height="8.17"/>
			<g>
				<polygon style="fill:#31A88A;" points="1473.841,1157.54 1471.552,1157.54 1471.552,986.851 1345.566,917.584 1346.612,915.406 
					1473.841,985.355 				"/>
			</g>
			<g>
				<polygon style="fill:#31A88A;" points="1544.303,1421.142 1251.86,1421.142 1251.86,1062.025 1254.149,1062.025 
					1254.149,1418.693 1544.303,1418.693 				"/>
			</g>
			<g>
				<rect x="1285.559" y="1463.386" style="fill:#31A88A;" width="258.744" height="2.449"/>
			</g>
			<g>
				<rect x="1398.653" y="1564.96" style="fill:#31A88A;" width="145.65" height="2.449"/>
			</g>
			<g>
				<polygon style="fill:#31A88A;" points="1318.132,1572.217 1316.228,1570.858 1348.188,1519.491 1544.303,1519.491 
					1544.303,1521.941 1349.413,1521.941 				"/>
			</g>
			<g>
				<polygon style="fill:#31A88A;" points="1450.493,1653.948 1395.429,1653.948 1395.429,1651.499 1448.204,1651.499 
					1448.204,1578.111 1538.871,1578.111 1538.871,1580.561 1450.493,1580.561 				"/>
			</g>
			<g>
				<polygon style="fill:#31A88A;" points="1317.989,1658.398 1316.371,1656.666 1351.729,1618.833 1351.729,1485.891 
					1544.303,1485.891 1544.303,1488.341 1354.018,1488.341 1354.018,1619.847 				"/>
			</g>
			<g>
				<rect x="1346.089" y="1385.093" style="fill:#31A88A;" width="198.214" height="2.449"/>
			</g>
			<g>
				<polygon style="fill:#31A88A;" points="1555.149,1344.169 1479.74,1344.169 1479.74,1236.268 1482.028,1236.268 
					1482.028,1341.72 1555.149,1341.72 				"/>
			</g>
			<g>
				<polygon style="fill:#31A88A;" points="1550.063,1369.205 1466.006,1369.205 1466.006,1240.97 1468.295,1240.97 
					1468.295,1366.756 1550.063,1366.756 				"/>
			</g>
			<g>
				<polygon style="fill:#31A88A;" points="1533.08,1327.841 1499.069,1327.841 1499.069,1236.268 1501.358,1236.268 
					1501.358,1325.392 1533.08,1325.392 				"/>
			</g>
			<g>
				<polygon style="fill:#31A88A;" points="1600.038,1342.944 1597.749,1342.944 1597.749,1253.783 1543.452,1189.191 
					1545.154,1187.552 1600.038,1252.842 				"/>
			</g>
			<g>
				<polygon style="fill:#31A88A;" points="1627.273,1326.616 1624.984,1326.616 1624.984,1220.993 1543.494,1133.797 
					1545.112,1132.065 1627.273,1219.978 				"/>
			</g>
			<g>
				<polygon style="fill:#31A88A;" points="1612.246,1332.058 1609.957,1332.058 1609.957,1231.357 1549.282,1170.761 
					1550.844,1168.972 1612.246,1230.292 				"/>
			</g>
			<g>
				<polygon style="fill:#31A88A;" points="1446.339,1143.742 1444.051,1143.742 1444.051,1005.704 1345.57,952.163 
					1346.607,949.979 1446.339,1004.203 				"/>
			</g>
			<g>
				<polygon style="fill:#31A88A;" points="1509.751,1132.931 1507.462,1132.931 1507.462,981.214 1348.284,894.999 
					1349.318,892.815 1509.751,979.709 				"/>
			</g>
			
				<rect x="1412.517" y="1106.583" transform="matrix(-1.836970e-16 1 -1 -1.836970e-16 2675.6262 -311.2281)" style="fill:#0A4035;" width="161.82" height="151.233"/>
			<rect x="1426.967" y="1111.086" style="fill:#09362D;" width="132.921" height="142.227"/>
			
				<rect x="1056.367" y="821.119" transform="matrix(-1.836970e-16 1 -1 -1.836970e-16 2187.0466 -245.7175)" style="fill:#0A4035;" width="320.03" height="299.091"/>
			<rect x="1075.992" y="820.446" style="fill:#09362D;" width="280.779" height="300.436"/>
			
				<rect x="1159.4" y="1312.831" transform="matrix(-1.836970e-16 1 -1 -1.836970e-16 2668.0757 146.8079)" style="fill:#0A4035;" width="202.468" height="189.221"/>
			<rect x="1175.179" y="1316.005" style="fill:#09362D;" width="170.909" height="182.874"/>
			
				<rect x="1274.042" y="1545.597" transform="matrix(-1.836970e-16 1 -1 -1.836970e-16 2889.48 269.1938)" style="fill:#0A4035;" width="72.202" height="67.48"/>
			<rect x="1285.56" y="1553.032" style="fill:#09362D;" width="49.167" height="52.609"/>
			
				<rect x="1359.329" y="1545.598" transform="matrix(-1.836970e-16 1 -1 -1.836970e-16 2974.7671 183.9068)" style="fill:#0A4035;" width="72.202" height="67.478"/>
			<rect x="1370.846" y="1553.032" style="fill:#09362D;" width="49.167" height="52.609"/>
			
				<rect x="1274.042" y="1632.136" transform="matrix(-1.836970e-16 1 -1 -1.836970e-16 2976.0188 355.7325)" style="fill:#0A4035;" width="72.202" height="67.48"/>
			<rect x="1285.56" y="1639.571" style="fill:#09362D;" width="49.167" height="52.609"/>
			
				<rect x="1359.329" y="1632.136" transform="matrix(-1.836970e-16 1 -1 -1.836970e-16 3061.3057 270.4454)" style="fill:#0A4035;" width="72.202" height="67.478"/>
			<rect x="1370.846" y="1639.571" style="fill:#09362D;" width="49.167" height="52.609"/>
			<polygon style="fill:#0A4035;" points="1513.897,1600.824 1513.897,1306.209 1651.229,1306.209 1651.229,1368.883 
				1625.226,1368.883 1625.226,1538.151 1651.229,1538.151 1651.229,1600.824 			"/>
			<polygon style="fill:#09362D;" points="1616.07,1547.947 1616.07,1359.086 1642.072,1359.086 1642.072,1316.005 
				1523.052,1316.005 1523.052,1591.028 1642.072,1591.028 1642.072,1547.947 			"/>
			<g>
				<rect x="1616.07" y="1374.87" style="fill:#D9D9D9;" width="36.741" height="22.896"/>
				<rect x="1616.07" y="1408.469" style="fill:#D9D9D9;" width="36.741" height="22.896"/>
				<rect x="1616.07" y="1442.069" style="fill:#D9D9D9;" width="36.741" height="22.896"/>
				<rect x="1616.07" y="1475.668" style="fill:#D9D9D9;" width="36.741" height="22.896"/>
				<rect x="1616.07" y="1509.267" style="fill:#D9D9D9;" width="36.741" height="22.896"/>
			</g>
			<ellipse style="fill:#D9D9D9;" cx="1583.678" cy="789.735" rx="61.451" ry="65.753"/>
			<ellipse style="fill:#1B755E;" cx="1583.678" cy="789.735" rx="50.598" ry="54.141"/>
			<ellipse style="fill:#D9D9D9;" cx="1583.678" cy="789.735" rx="44.463" ry="47.576"/>
			<ellipse style="fill:#1B755E;" cx="1583.678" cy="789.735" rx="39.376" ry="42.133"/>
			<ellipse style="fill:#D9D9D9;" cx="1583.678" cy="789.735" rx="23.353" ry="24.988"/>
			<rect x="1040.105" y="1553.032" style="fill:#09362D;" width="45.777" height="26.305"/>
			<rect x="1040.105" y="1532.35" style="fill:#D9D9D9;" width="45.777" height="20.682"/>
			<rect x="1040.105" y="1579.337" style="fill:#D9D9D9;" width="45.777" height="20.682"/>
			<rect x="1111.826" y="1626.418" style="fill:#09362D;" width="45.777" height="26.305"/>
			<rect x="1111.826" y="1605.736" style="fill:#D9D9D9;" width="45.777" height="20.682"/>
			<rect x="1111.826" y="1652.723" style="fill:#D9D9D9;" width="45.777" height="20.682"/>
			<rect x="1207.227" y="1576.526" style="fill:#09362D;" width="45.777" height="26.305"/>
			<rect x="1207.227" y="1555.843" style="fill:#D9D9D9;" width="45.777" height="20.682"/>
			<rect x="1207.227" y="1602.83" style="fill:#D9D9D9;" width="45.777" height="20.682"/>
			
				<rect x="1164.733" y="1187.384" transform="matrix(-1.836970e-16 1 -1 -1.836970e-16 2388.8999 10.4525)" style="fill:#09362D;" width="48.982" height="24.584"/>
			
				<rect x="1186.689" y="1190.012" transform="matrix(-1.836970e-16 1 -1 -1.836970e-16 2410.8562 -11.5038)" style="fill:#D9D9D9;" width="48.982" height="19.329"/>
			
				<rect x="1142.776" y="1190.012" transform="matrix(-1.836970e-16 1 -1 -1.836970e-16 2366.9436 32.4088)" style="fill:#D9D9D9;" width="48.982" height="19.329"/>
			
				<rect x="1292.69" y="1187.384" transform="matrix(-1.836970e-16 1 -1 -1.836970e-16 2516.8567 -117.5043)" style="fill:#09362D;" width="48.982" height="24.583"/>
			
				<rect x="1314.646" y="1190.012" transform="matrix(-1.836970e-16 1 -1 -1.836970e-16 2538.8127 -139.4605)" style="fill:#D9D9D9;" width="48.982" height="19.329"/>
			
				<rect x="1270.733" y="1190.012" transform="matrix(-1.836970e-16 1 -1 -1.836970e-16 2494.9004 -95.548)" style="fill:#D9D9D9;" width="48.982" height="19.329"/>
			
				<rect x="1131.318" y="752.455" transform="matrix(-1.836970e-16 1 -1 -1.836970e-16 1920.5562 -391.0623)" style="fill:#09362D;" width="48.982" height="24.583"/>
			
				<rect x="1153.275" y="755.082" transform="matrix(-1.836970e-16 1 -1 -1.836970e-16 1942.5125 -413.0186)" style="fill:#D9D9D9;" width="48.982" height="19.329"/>
			
				<rect x="1109.362" y="755.082" transform="matrix(-1.836970e-16 1 -1 -1.836970e-16 1898.5999 -369.1061)" style="fill:#D9D9D9;" width="48.982" height="19.329"/>
			
				<rect x="1256.841" y="752.455" transform="matrix(-1.836970e-16 1 -1 -1.836970e-16 2046.0792 -516.5854)" style="fill:#09362D;" width="48.982" height="24.583"/>
			
				<rect x="1278.798" y="755.082" transform="matrix(-1.836970e-16 1 -1 -1.836970e-16 2068.0354 -538.5417)" style="fill:#D9D9D9;" width="48.982" height="19.329"/>
			
				<rect x="1234.885" y="755.082" transform="matrix(-1.836970e-16 1 -1 -1.836970e-16 2024.123 -494.6292)" style="fill:#D9D9D9;" width="48.982" height="19.329"/>
			
				<rect x="1381.798" y="752.455" transform="matrix(-1.836970e-16 1 -1 -1.836970e-16 2171.0361 -641.5422)" style="fill:#09362D;" width="48.982" height="24.583"/>
			
				<rect x="1403.755" y="755.082" transform="matrix(-1.836970e-16 1 -1 -1.836970e-16 2192.9922 -663.4985)" style="fill:#D9D9D9;" width="48.982" height="19.329"/>
			
				<rect x="1359.842" y="755.082" transform="matrix(-1.836970e-16 1 -1 -1.836970e-16 2149.0798 -619.5859)" style="fill:#D9D9D9;" width="48.982" height="19.329"/>
			
				<rect x="1540.468" y="1000.534" transform="matrix(-1.836970e-16 1 -1 -1.836970e-16 2616.7214 -570.8926)" style="fill:#0A4035;" width="106.678" height="44.762"/>
			<rect x="1580.582" y="979.373" style="fill:#09362D;" width="26.45" height="87.083"/>
			
				<rect x="1563.848" y="887.522" transform="matrix(-1.836970e-16 1 -1 -1.836970e-16 2503.71 -683.9039)" style="fill:#0A4035;" width="59.917" height="44.762"/>
			<rect x="1580.582" y="885.447" style="fill:#09362D;" width="26.45" height="48.912"/>
		</g>
		<g>
			<path style="fill:#D9D9D9;" d="M1441.044,1830.537h-196.013v-103.791h196.013V1830.537z M1254.032,1820.907h178.013v-84.531
				h-178.013V1820.907z"/>
		</g>
		<rect x="1260.532" y="1743.332" style="fill:#09362D;" width="165.012" height="70.62"/>
	</g>
	<path style="fill:#F7CC7F;" d="M206.274,1843.241h1966.372c6.575,0,6.575,12.429,0,12.429H206.274
		C199.699,1855.67,199.699,1843.241,206.274,1843.241z"/>
	<g>
		<path style="fill:#F7A491;" d="M1610.138,876.284c0.755-4.063,18.786,2.622,21.621-0.302c2.836-2.924-18.68-15.584-17.735-19.036
			c1.741-6.36,24.417,12.416,25.404,9.54c0.987-2.875-21.444-23.391-16.117-26.247c5.326-2.857,21.039,23.699,23.47,21.084
			c2.431-2.616-16.833-23.381-12.629-29.758c2.247-3.408,28.426,39.666,33.966,40.282c5.541,0.617,5.831-21.278,10.777-21.723
			c4.947-0.444-3.163,39.243-1.986,42.152c7.626,18.833,56.869,87.334,56.869,87.334s57.98,40.4,78.25,55
			c6.123,13.256-18.937,31.387-12.111,44.183c-35.465-21.775-77.96-59.968-88.129-68.352
			c-15.782-13.012-47.856-84.503-55.308-100.75c-5.292-11.538-16.51-14.671-23.443-22.409
			C1626.107,879.544,1609.383,880.347,1610.138,876.284z"/>
		<path style="fill:#F8A492;" d="M1966.359,1214.543c-0.947,3.265-1.492,4.348-2.697,6.54c-7.77,14.141-25.797,34.321-25.797,34.321
			l-13.945-31.418c0,0,2.274-9.865,6.216-23.968C1943.605,1203.536,1956.432,1205.571,1966.359,1214.543z"/>
		<path style="fill:#89A6E5;" d="M1886.409,1187.291c0,0,77.777,33.494,80.292,32.853c1.619-0.412,31.903-51.101,32.227-98.769
			c0.149-22.016-22.714-48.498-48.225-43.261c-12.843,2.636-12.644,6.209-31.645,33.819
			C1900.057,1139.543,1886.409,1187.291,1886.409,1187.291z"/>
		<path style="fill:#F7A491;" d="M1820.016,1787.79c0,0,1.845,30.546,1.856,30.609c0.678,3.879,3.349,13.46,3.349,16.986
			c0,13.244-62.893-11.243-48.797-17.113c1.276-0.531,7.96-4.551,8.379-9.058c0.647-6.946,2.287-20.996,2.287-20.996
			L1820.016,1787.79z"/>
		<path style="fill:#355389;" d="M1776.58,1818.147c0,0,14.765,4.051,22.328,5.064c7.563,1.013,17.533-7.515,22.882-5.212
			c5.887,2.536,5.657,25.359,5.657,25.359s-79.184,6.498-101.449-0.224C1717.177,1840.471,1746.393,1827.583,1776.58,1818.147z"/>
		<path style="fill:#F7A491;" d="M1942.834,1028.275l7.13,45.097c0,0-27.17,21.816-43.008,17.214
			c-13.289-3.861-4.175-21.235-4.175-21.235s7.079-24.073,4.907-36.693C1905.515,1020.04,1942.834,1028.275,1942.834,1028.275z"/>
		<path style="fill:#FE875E;" d="M1937.714,1041.91c-6.81,3.216-20.274,7.604-30.75,8.667c1.002-6.311,1.573-12.986,0.724-17.918
			c-1.003-5.824,6.408-7.201,14.677-7.001c10.822,0.929,20.469,2.618,20.469,2.618l1.37,8.666
			C1942.146,1039.113,1939.982,1040.839,1937.714,1041.91z"/>
		<path style="fill:#F7A491;" d="M1977.122,976.26c1.121,0.005-10.74,50.38-29.096,59.046c-18.356,8.666-45.732,4.15-50.869-9.418
			c-5.682-15.008,15.044-66.404,40.862-72.932C1963.836,946.427,1977.122,976.26,1977.122,976.26z"/>
		<path style="fill:#F7CC7F;" d="M1955.881,929.972c14.662,8.458,21.392,20.999,23.656,26.136
			c6.882,3.265,15.209,10.33,19.206,29.362c4.916,23.401-12.559,41.439-31.084,46.866c-18.525,5.425-21.386,17.685-21.386,17.685
			l-2.101-13.193c0,0,4.121-11.486,10.318-17.236c6.197-5.748-2.935-14.126-3.738-20.96c-0.618-5.261,3.256-15.478,2.417-24.112
			c0,0-10.294-15.6-20.441-19.455C1915.428,948.494,1937.068,919.121,1955.881,929.972z"/>
		<path style="fill:#F7A491;" d="M1950.264,1787.79c0,0,1.845,30.546,1.856,30.609c0.678,3.879,3.349,13.46,3.349,16.986
			c0,13.244-62.893-11.243-48.797-17.113c1.276-0.531,7.96-4.551,8.379-9.058c0.647-6.946,2.287-20.996,2.287-20.996
			L1950.264,1787.79z"/>
		<path style="fill:#355389;" d="M1906.828,1818.147c0,0,14.765,4.051,22.328,5.064c7.563,1.013,17.533-7.515,22.882-5.212
			c5.887,2.536,5.657,25.359,5.657,25.359s-79.184,6.498-101.449-0.224C1847.425,1840.471,1876.641,1827.583,1906.828,1818.147z"/>
		<path style="fill:#13375B;" d="M1934.43,1305.974c0,0,10.658,51.527,6.315,90.598c-4.343,39.071-4.684,177.863-4.684,177.863
			l16.575,222.067l-39.329,0.858c0,0-46.635-221.961-45.766-216.263c0.869,5.698-15.637-156.282-15.637-156.282l55.598-123.724
			L1934.43,1305.974z"/>
		<path style="fill:#355389;" d="M1924.005,1303.532c0,0,6.95,46.397-1.737,66.746c-8.687,20.349-74.51,220.014-75.378,236.293
			c-0.869,16.279-22.758,196.216-22.758,196.216l-45.731-1.286l-9.893-200.055l20.716-251.437l20.114-63.571L1924.005,1303.532z"/>
		<path style="fill:#F7A491;" d="M1949.963,1073.372c0,0-11.276,7.399-21.794,6.542c-10.518-0.858-25.389-10.564-25.389-10.564
			l2.066-7.005c0,0,27.21-3.964,27.896-3.535C1933.428,1059.239,1949.963,1073.372,1949.963,1073.372z"/>
		<path style="fill:#9BC1F9;" d="M1802.387,1230.274c6.004-32.662,49.516-134.306,52.991-153.027
			c1.689-9.104,25.16-9.306,47.516-8.118c23.613,1.255,47.07,4.242,47.07,4.242s20.905,3.432,30.102,12.051
			c9.197,8.617,11.64,32.451-1.581,77.695c-10.437,35.715-23.375,55.326-29.778,81.34c-1.297,8.727-2.407,17.335-3.88,27.393
			c-2.354,38.899-50.554,36.544-50.554,36.544s-41.053,50.351-83.619,14.537C1810.653,1322.933,1796.235,1263.739,1802.387,1230.274
			z"/>
		<path style="fill:#89A6E5;" d="M1784.096,1009.869c0,0-30.713,49.083-30.372,51.668c0.219,1.663,53.57,57.216,92.615,66.519
			c21.586,5.144,58.484-34.774,55.931-53.57C1900.499,1061.458,1784.096,1009.869,1784.096,1009.869z"/>
		<path style="fill:#355389;" d="M1980.065,1085.423c-2.26-2.118-5.23-3.922-8.422-5.44c14.929,14.216-0.392,83.39-3.508,85.813
			c-3.115,2.423-52.65,1.07-53.994-4.5c-2.422-10.038,1.731-25.958,5.884-55.032c2.801-19.604-1.95-31.015-5.343-36.375
			c-3.852-0.286-7.816-0.548-11.789-0.759c0,0,22.69,17.548-19.462,136.935c-3.462,9.805-44.728,5.419-75.531,3.641
			c-2.596,8.224-4.546,15.298-5.514,20.568c-6.152,33.465-13.9,119.655-13.9,119.655c42.567,35.814,152.969,12.866,152.969,12.866
			s1.018-52.044,3.371-90.943c1.472-10.058,2.583-18.666,3.88-27.393c6.403-26.014,19.341-45.625,29.778-81.34
			C1991.706,1117.874,1989.263,1094.04,1980.065,1085.423z"/>
		<path style="fill:#F7CC7F;" d="M1944.204,956.049c0,0,5.41,4.411,3.422,11.205c-1.988,6.793-15.486,25.829-13.409,34.483
			c2.076,8.653-2.021,42.619,12.055,48.285c0,0,3.953-20.942,4.731-20.942s11.123-5.452,11.986-9.735
			c0.864-4.282,0.864-20.506,0.993-21.155c0.13-0.649-4.283-36.862-4.283-36.862L1944.204,956.049z"/>
		<path style="fill:#F7A491;" d="M1930.169,993.512c-2.399,5.819-1.419,11.596,2.19,12.903c3.609,1.307,8.48-2.35,10.879-8.168
			c2.399-5.818,1.419-11.595-2.191-12.902C1937.438,984.037,1932.568,987.694,1930.169,993.512z"/>
	</g>
	<g>
		<path style="fill:#F8A492;" d="M689.46,1317.067c-0.416-0.256-0.797-0.557-1.142-0.902
			c-11.136-11.105-104.613-104.393-107.555-109.619c-2.654-4.719-30.346-102.471-30.346-102.471l48.283,2.639l22.452,90.588
			c2.883,3.979,58.755,75.781,58.755,75.781s9.893,13.442,16.215,21.011c2.341,0.826,4.572,1.581,6.436,2.16
			c4.163,1.016,8,1.337,11.322,1.492c4.18,0.196,12.471,1.65,14.314,2.5c2.139,0.989,6.486,3.169,9.083,4.516
			c2.597,1.346,5.7,2.819,6.991,3.695c0.785,0.534,2.86,0.977,4.364,1.242c2.242,0.395,2.849,3.351,0.928,4.562
			c-1.81,1.142-4.849,0.695-6.738,0.407c-5.329-0.811-12.807-5.04-12.893-4.227c-0.087,0.813,9.499,11.776,10.514,13.099
			c1.015,1.324,12.088,14.125,13.413,17.318c1.326,3.192-0.436,4.539-2.276,3.772c-1.582-0.66-18.185-17.219-18.185-17.219
			s-2.121-2.107-2.225-0.513c-0.104,1.594,14.939,16.658,16.765,19.321c1.825,2.664,1.792,5.298-1.243,5.072
			c-3.692-0.275-18.758-17.34-18.758-17.34s-1.925-2.106-2.486-1.009c-0.558,1.097,12.456,13.7,13.071,15.413
			c0.615,1.714-0.448,3.896-3.175,3.118c-3.212-0.915-16.531-16.264-16.531-16.264s-1.341-0.88-1.407,0.036
			c-0.065,0.915,10.261,12.45,10.374,14.547c0.095,1.762-1.486,1.87-1.486,1.87c-3.311,0.969-11.804-11.629-17.429-16.179
			c-5.626-4.551-9.798-12.29-17.094-16.976C691.315,1318.215,690.177,1317.51,689.46,1317.067z"/>
		<path style="fill:#89A6E5;" d="M566.749,1184.01l57.295-17.21c0,0-8.775-49.49-16.578-69.122
			c-21.791-54.826-62.882-42.641-68.061-31.222C527.82,1091.997,566.749,1184.01,566.749,1184.01z"/>
		<path style="fill:#9BC1F9;" d="M596.666,1114.643c1.189,8.313,16.292,237.504,16.292,237.504
			c-103.386,50.539-153.707,5.814-153.707,5.814s3.383-158.702-0.672-180.302c-2.683-14.292-6.027-109.258,3.123-111.917
			c11.741-3.414,25.205-7.038,39.88-8.58c12.526-1.315,61.186-2.079,69.892,0.881
			C571.473,1058.042,591.664,1079.683,596.666,1114.643z"/>
		<path style="fill:#F48C7F;" d="M397.426,1770.654c0,0-10.532,10.311-10.77,14.095c-0.24,3.784-0.933,44.323,3.367,48.107
			c4.3,3.784,16.928,6.467,12.868,10.725c-3.069,3.217-26.677,2.528-42.323,1.666c-4.567-0.253-10.294-36.817-12.103-42.191
			c-2.627-7.805-9.016-25.387-6.628-30.826c1.163-2.651,6.731-8.098,14.577-13.184c8.251-5.348,16.147-17.255,16.147-17.255
			L397.426,1770.654z"/>
		<path style="fill:#F7A491;" d="M506.522,1794.665c0,0-9.424,26.715-9.436,26.784c-0.702,4.232-3.46,14.689-3.46,18.536
			c0,14.455,64.966-12.27,50.407-18.675c-1.319-0.581-5.452-5.213-5.885-10.13c-0.668-7.581,5.473-17.088,5.473-17.088
			L506.522,1794.665z"/>
		<path style="fill:#13375B;" d="M608.437,1297.201c0,0,4.737,47.891,4.737,48.606c0,77.471,15.306,228.799,12.394,243.363
			c-7.1,35.526-83.523,216.753-83.523,216.753l-41.304-4.954l53.823-216.981l-19.806-87.335l-28.027-172.635L608.437,1297.201z"/>
		<path style="fill:#5184CE;" d="M356.924,1758.791c0,0,24.272,68.575,33.773,71.885c2.523,0.878,14.628,3.108,16.912,8.48
			c0.689,1.618,0,7.024,0,7.024h-50.593c0,0-6.399-30.215-8.928-43.491c0,0-13.393-32.436-11.904-35.383
			C337.672,1764.359,356.924,1758.791,356.924,1758.791z"/>
		<path style="fill:#5184CE;" d="M489.93,1844.755l7.441-23.583c0,0,15.623,6.632,23.436,5.527
			c7.811-1.105,23.064-5.527,23.064-5.527c31.183,10.298,56.728,15.297,52.081,23.583l0,0H489.93z"/>
		<path style="fill:#F7A491;" d="M515.542,1008.301l-7.42,49.081c0,0,27.102,58.44,43.281,53.372
			c13.577-4.253,5.224-55.962,5.224-55.962s-7.399-27.768-5.18-41.664C553.665,999.232,515.542,1008.301,515.542,1008.301z"/>
		<path style="fill:#F47458;" d="M551.446,1013.128c2.219-13.896-35.904-4.827-35.904-4.827l-0.615,4.07
			c1.116,2.723,2.479,5.053,4.135,6.841c8.515,9.195,21.826,14.719,33.333,15.136
			C551.243,1026.856,550.536,1018.826,551.446,1013.128z"/>
		<g>
			<path style="fill:#F7A491;" d="M509.287,938.864c-1.077-0.393-8.636,55.901,5.709,71.39
				c14.345,15.489,42.294,20.558,52.319,8.359c11.089-13.493,10.531-73.995-11.772-89.928
				C533.241,912.751,509.287,938.864,509.287,938.864z"/>
			<path style="fill:#13375B;" d="M547.053,898.573c-17.238,3.527-28.404,14.098-32.507,18.603
				c-7.828,0.927-18.466,5.268-29.452,23.52c-13.509,22.443-3.533,47.306,12.192,59.506c15.724,12.198,15.506,26.29,15.506,26.29
				l2.486-7.289c1.835-5.521,2.584-11.376,1.971-17.167c-0.368-3.476-1.11-7.233-2.544-10.322
				c-3.782-8.147,8.124-13.56,11.464-20.338c2.569-5.219,2.695-17.159,6.745-25.787l4.836-6.586c0,0,11.158-8.712,22.076-6.253
				C570.742,935.207,569.172,894.047,547.053,898.573z"/>
			<path style="fill:#F7A491;" d="M525.433,981.392c0.114,6.868-2.997,12.49-6.949,12.558c-3.953,0.068-7.248-5.445-7.362-12.312
				c-0.114-6.869,2.997-12.492,6.95-12.559C522.023,969.011,525.32,974.524,525.433,981.392z"/>
		</g>
		<path style="fill:#FFFFFF;" d="M548.728,997.261l21.623-1.123c0,0-0.072,8.267-9.568,9.036
			C549.206,1006.113,548.728,997.261,548.728,997.261z"/>
		<path style="fill:#355389;" d="M596.774,1114.643c-5.046-34.959-25.413-56.601-25.413-56.601c-1.03-0.347-2.623-0.643-4.641-0.893
			c8.606,11.099,20.241,39.634,22.963,48.187c3.09,9.711,6.898,61.693,6.898,61.693c-9.934,5.628-56.217,4.966-56.217,4.966
			s-5.42-46.352-12.042-67.92c-6.623-21.567-27.462-46.914-27.462-46.914c-3.052,0.318-6.049,0.729-8.995,1.204
			c6.409,7.932,26.655,34.315,30.724,55.801c4.849,25.604,26.935,113.442,0,122.055c-13.346,4.268-39.803,3.819-63.103,1.26
			c0.079,33.289-0.465,72.334-0.881,96.745l-17.833,237.538l-80.754,182.579c0,0,11.36,26.567,28.117,30.299l128.527-187.454
			l78.951-237.196c5.687-2.317,11.547-4.915,17.594-7.845C613.206,1352.146,597.973,1122.956,596.774,1114.643z"/>
		<g>
			<path style="fill:#13375B;" d="M1117.088,1207.636l-3.821-12.803c-0.328-1.099-1.416-1.786-2.549-1.611l-48.959,7.577
				c-1.68,0.26-3.207,1.123-4.297,2.427l-8.658,10.364l-340.759,101.704c-3.78,1.128-5.93,5.108-4.802,8.888l0,0
				c1.128,3.78,5.107,5.93,8.888,4.802l340.759-101.704l12.922,3.923c1.626,0.494,3.377,0.378,4.924-0.325l45.103-20.497
				C1116.883,1209.906,1117.416,1208.735,1117.088,1207.636z"/>
			<path style="fill:#F47458;" d="M801.903,1329.77l-19.202-64.337c-1.383-4.635,1.252-9.513,5.887-10.896l0,0
				c4.635-1.383,9.513,1.252,10.896,5.887l19.202,64.337c1.383,4.635-1.252,9.513-5.887,10.896l0,0
				C808.165,1337.041,803.286,1334.405,801.903,1329.77z"/>
			<path style="fill:#F47458;" d="M603.639,1384.751l158.176-47.21c4.733-1.413,9.585-0.85,13.675,1.207
				c1.592,0.801,3.441,0.924,5.149,0.415l23.807-7.106l-20.872-69.932l-23.807,7.106c-1.708,0.51-3.187,1.626-4.08,3.169
				c-2.293,3.962-6.043,7.092-10.776,8.505l-158.176,47.21c-4.733,1.413-9.585,0.85-13.674-1.207
				c-1.592-0.801-3.441-0.924-5.149-0.415l-34.405,10.269c-19.311,5.764-30.293,26.091-24.53,45.402v0
				c5.764,19.311,26.091,30.293,45.402,24.53l34.405-10.269c1.708-0.51,3.187-1.626,4.08-3.169
				C595.157,1389.294,598.906,1386.164,603.639,1384.751z"/>
			<path style="fill:#D9533F;" d="M778.857,1263.534c-0.049,0.969,0.054,1.96,0.347,2.943l19.202,64.337
				c0.293,0.982,0.751,1.868,1.323,2.652l4.718-1.408l-20.872-69.932L778.857,1263.534z"/>
			<path style="fill:#D9533F;" d="M581.008,1360.665L581.008,1360.665c-1.268-4.248,1.148-8.719,5.396-9.987l170.288-50.825
				c4.248-1.268,8.719,1.148,9.987,5.396l0,0c1.268,4.248-1.148,8.719-5.396,9.987l-170.288,50.825
				C586.747,1367.329,582.276,1364.913,581.008,1360.665z"/>
		</g>
		<path style="fill:#F8A492;" d="M596.29,1325.391c-0.415-0.256-0.795-0.557-1.142-0.902
			c-11.136-11.105-104.613-104.391-107.554-109.619c-2.655-4.719-30.348-102.469-30.348-102.469l48.283,2.638l22.454,90.588
			c2.882,3.979,58.754,75.78,58.754,75.78s9.894,13.443,16.217,21.011c2.34,0.826,4.57,1.582,6.435,2.161
			c4.163,1.016,8,1.337,11.322,1.492c4.181,0.196,12.473,1.65,14.314,2.5c2.14,0.989,6.486,3.17,9.083,4.516
			c2.597,1.347,5.7,2.819,6.991,3.695c0.785,0.534,2.86,0.977,4.364,1.242c2.241,0.395,2.849,3.351,0.928,4.563
			c-1.809,1.141-4.849,0.693-6.738,0.406c-5.328-0.811-12.806-5.039-12.893-4.227c-0.087,0.813,9.5,11.776,10.514,13.099
			c1.016,1.323,12.088,14.126,13.413,17.318c1.326,3.192-0.436,4.539-2.274,3.772c-1.584-0.66-18.185-17.218-18.185-17.218
			s-2.122-2.107-2.226-0.513c-0.103,1.595,14.939,16.658,16.765,19.321c1.825,2.664,1.793,5.298-1.243,5.072
			c-3.691-0.275-18.758-17.339-18.758-17.339s-1.927-2.106-2.484-1.009c-0.559,1.097,12.455,13.7,13.07,15.414
			c0.615,1.713-0.447,3.895-3.175,3.117c-3.212-0.915-16.532-16.264-16.532-16.264s-1.34-0.88-1.406,0.036
			c-0.066,0.917,10.261,12.45,10.375,14.548c0.095,1.762-1.486,1.87-1.486,1.87c-3.312,0.969-11.806-11.629-17.43-16.179
			c-5.625-4.551-9.797-12.29-17.094-16.976C598.145,1326.539,597.007,1325.834,596.29,1325.391z"/>
		<path style="fill:#89A6E5;" d="M474.019,1191.648l57.298-17.21c0,0-8.775-49.49-16.579-69.122
			c-21.792-54.825-62.884-42.641-68.062-31.222C435.092,1099.634,474.019,1191.648,474.019,1191.648z"/>
	</g>
</g>
</svg>
