<?xml version="1.0" encoding="utf-8"?>
<!-- Generator: Adobe Illustrator 27.5.0, SVG Export Plug-In . SVG Version: 6.00 Build 0)  -->
<svg version="1.1" xmlns="http://www.w3.org/2000/svg" xmlns:xlink="http://www.w3.org/1999/xlink" x="0px" y="0px"
	 viewBox="0 0 3710 3710" style="enable-background:new 0 0 3710 3710;" xml:space="preserve">
<g id="Background">
	<g>
		<g>
			<rect style="fill:none;" width="3710" height="3710"/>
		</g>
	</g>
</g>
<g id="Illustration">
	<g>
		<linearGradient id="SVGID_1_" gradientUnits="userSpaceOnUse" x1="3595.2393" y1="4052.8916" x2="1122.2844" y2="981.6369">
			<stop  offset="0" style="stop-color:#DAE3FE"/>
			<stop  offset="1" style="stop-color:#E9EFFD"/>
		</linearGradient>
		<path style="fill:url(#SVGID_1_);" d="M2916.835,2840.37c-56.908,59.727-110.754,98.244-153.297,128.676
			c-500.08,357.715-1091.807,253.443-1217.566,227.979c-185.706-37.603-544.672-110.287-804.198-414.551
			c-392.641-460.325-331.501-1185.555-26.942-1664.289c55.709-87.569,349.978-573.595,948.078-651.538
			c361.964-47.17,783.898,47.967,1089.451,303.176C3393.743,1305.53,3348.084,2387.754,2916.835,2840.37z"/>
		<g>
			<path style="fill:#91B3FA;" d="M1816.75,2478.354c0,0-428.85-1284.133-1137.309-1942.023
				c-47.625-44.224-125.286-18.546-136.764,45.424C465.935,1009.507,360.525,2295.533,1816.75,2478.354z"/>
			<path style="opacity:0.5;fill:#FFFFFF;" d="M1678.426,2405.507c3.485,2.843-0.31,8.176-4.144,5.826
				C1532.9,2324.701,977.013,1886.545,701.05,938.541c-0.886-3.045,3.567-4.636,4.712-1.679
				C790.21,1154.77,1127.381,1955.952,1678.426,2405.507z"/>
		</g>
		<g>
			<path style="fill:#BDD0FB;" d="M1964.83,2854.275c0,0-890.015-727.032-1397.828-1124.267
				c-40.802-31.918-98.59,21.705-89.004,72.613C542.102,2143.032,751.101,3153.611,1964.83,2854.275z"/>
			<path style="opacity:0.5;fill:#FFFFFF;" d="M1778.153,2881.338c3.383,1.188,2.032,5.892-1.53,5.49
				c-174.235-19.674-718.271-177.836-1128.394-840.596c-1.331-2.149,1.419-4.442,3.078-2.535
				C773.619,2184.191,1243.324,2693.523,1778.153,2881.338z"/>
		</g>
		<g>
			<path style="fill:#7D97F4;" d="M2554.751,2825.159c0,0-531.373-647.787-51.918-1242.57
				c299.621-371.69,376.372-620.465,391.795-754.796c5.057-44.052,57.505-60.839,85.444-27.569
				C3188.685,1048.642,3615.185,1783.025,2554.751,2825.159z"/>
			<path style="opacity:0.5;fill:#FFFFFF;" d="M3022.899,1010.221c-0.015-4.15,5.719-4.57,6.264-0.46
				c20.092,151.556,32.93,804.622-456.21,1556.985c-1.572,2.417-5.135,0.176-3.767-2.375
				C2669.897,2376.455,3025.304,1666.517,3022.899,1010.221z"/>
		</g>
		<g>
			<g>
				
					<linearGradient id="SVGID_00000096779196910347878930000018185981546147710137_" gradientUnits="userSpaceOnUse" x1="1185.0052" y1="69.787" x2="2905.0916" y2="4236.6699">
					<stop  offset="0" style="stop-color:#09005D"/>
					<stop  offset="1" style="stop-color:#1A0F91"/>
				</linearGradient>
				<path style="fill:url(#SVGID_00000096779196910347878930000018185981546147710137_);" d="M2630.828,3118.982H1181.176
					c-16.154,0-29.249-13.095-29.249-29.249V543.048c0-16.154,13.095-29.248,29.249-29.248h1449.652
					c16.154,0,29.249,13.095,29.249,29.248v2546.686C2660.077,3105.887,2646.982,3118.982,2630.828,3118.982z"/>
				
					<linearGradient id="SVGID_00000119104258415649768500000016696496657881924230_" gradientUnits="userSpaceOnUse" x1="791.977" y1="784.1924" x2="2583.4656" y2="2445.2095">
					<stop  offset="0" style="stop-color:#4F52FF"/>
					<stop  offset="1" style="stop-color:#4042E2"/>
				</linearGradient>
				<path style="fill:url(#SVGID_00000119104258415649768500000016696496657881924230_);" d="M2561.793,3039.328H1250.135
					c-16.153,0-29.248-13.095-29.248-29.249V624.019c0-16.154,13.095-29.249,29.248-29.249h1311.658
					c16.153,0,29.249,13.095,29.249,29.249V3010.08C2591.042,3026.233,2577.947,3039.328,2561.793,3039.328z"/>
				
					<linearGradient id="SVGID_00000135670823420453312350000003930150887246659510_" gradientUnits="userSpaceOnUse" x1="1611.2179" y1="-98.5884" x2="3336.8674" y2="4081.7712">
					<stop  offset="0" style="stop-color:#09005D"/>
					<stop  offset="1" style="stop-color:#1A0F91"/>
				</linearGradient>
				<path style="fill:url(#SVGID_00000135670823420453312350000003930150887246659510_);" d="M2314.369,670.208h-807.883
					c-6.135,0-11.154-5.019-11.154-11.154V591.23h830.19v67.824C2325.522,665.188,2320.503,670.208,2314.369,670.208z"/>
				<path style="fill:#7D97F4;" d="M2169.063,630.719h-497.951c-2.242,0-4.077-1.835-4.077-4.077v-20.714
					c0-2.242,1.835-4.077,4.077-4.077h497.951c2.242,0,4.077,1.835,4.077,4.077v20.714
					C2173.139,628.884,2171.305,630.719,2169.063,630.719z"/>
			</g>
			<g>
				<defs>
					<path id="SVGID_00000088817817695242618330000016712970108047964073_" d="M2545.662,2984.898H1264.511
						c-16.153,0-29.249-13.095-29.249-29.249V691.638c0-16.154,13.095-29.248,29.249-29.248h1281.151
						c16.154,0,29.249,13.095,29.249,29.248V2955.65C2574.911,2971.803,2561.816,2984.898,2545.662,2984.898z"/>
				</defs>
				<clipPath id="SVGID_00000065040458525242268520000016627977990095150517_">
					<use xlink:href="#SVGID_00000088817817695242618330000016712970108047964073_"  style="overflow:visible;"/>
				</clipPath>
				
					<polygon style="opacity:0.21;clip-path:url(#SVGID_00000065040458525242268520000016627977990095150517_);fill:#FFFFFF;" points="
					2931.373,1341.751 1061.138,890.452 1099.28,741.207 2969.514,1192.506 				"/>
				
					<polygon style="opacity:0.21;clip-path:url(#SVGID_00000065040458525242268520000016627977990095150517_);fill:#FFFFFF;" points="
					2774.243,2741.044 904.008,2289.744 1022.296,1826.889 2892.531,2278.188 				"/>
				
					<polygon style="opacity:0.21;clip-path:url(#SVGID_00000065040458525242268520000016627977990095150517_);fill:#FFFFFF;" points="
					2876.284,2202.858 1006.049,1751.559 1036.766,1631.365 2907.001,2082.664 				"/>
				
					<polygon style="opacity:0.21;clip-path:url(#SVGID_00000065040458525242268520000016627977990095150517_);fill:#FFFFFF;" points="
					2883.331,1595.943 1013.096,1144.643 1030.977,1074.673 2901.212,1525.972 				"/>
			</g>
		</g>
		<g>
			<circle style="fill:#7D97F4;" cx="1177.404" cy="987.855" r="519.044"/>
			<circle style="fill:#FFFFFF;" cx="1180.15" cy="990.276" r="467.209"/>
			<g>
				<path style="fill:#91B3FA;" d="M985.622,700.056l-58.172-28.487c-5.296-2.594-11.638-1.707-16.02,2.239l-6.323,5.694
					l-10.219,9.204l-6.543,5.893c-4.382,3.947-5.925,10.161-3.898,15.699l22.263,60.827c3.377,9.228,11.06,16.253,20.672,18.299
					l39.313,8.595l255.299,283.48l14.71-13.248l10.219-9.204l13.888-12.507l-255.299-283.48l-4.146-40.265
					C1000.331,713.023,994.447,704.378,985.622,700.056z"/>
				<path style="fill:#7D97F4;" d="M981.661,703.495l-52.721-26.018c-4.771-2.336-10.805-1.896-14.752,1.659l-5.695,5.129
					l-9.205,8.29l-5.894,5.308c-3.947,3.555-5.015,9.51-3.189,14.498l20.214,54.969c3.042,8.312,10.134,14.648,18.791,16.491
					l35.582,7.75l230.224,255.638l13.069-11.77l9.205-8.29l14.386-12.956l-230.224-255.638l-4.673-35.424
					C995.849,714.329,989.611,707.387,981.661,703.495z"/>
				<g>
					
						<linearGradient id="SVGID_00000111163373631541386570000008936160122419496374_" gradientUnits="userSpaceOnUse" x1="1306.4757" y1="1108.9443" x2="1403.3751" y2="1486.5177">
						<stop  offset="0" style="stop-color:#4F52FF"/>
						<stop  offset="1" style="stop-color:#4042E2"/>
					</linearGradient>
					<path style="fill:url(#SVGID_00000111163373631541386570000008936160122419496374_);" d="M1430.659,1142.358l-181.504-161.992
						l-91.66,82.834l139.673,192.953c13.182,18.211,31.129,32.435,51.87,41.109l55.68,23.732c9.425,3.942,20.919,2.809,28.51-4.028
						l38.109-34.321c6.895-6.209,9.384-16.293,7.606-25.4l-9.37-46.725C1464.458,1184.311,1450.583,1160.14,1430.659,1142.358z"/>
					
						<linearGradient id="SVGID_00000044875541183683832150000010256650647674417067_" gradientUnits="userSpaceOnUse" x1="1786.1807" y1="1412.6466" x2="1806.3563" y2="980.3151" gradientTransform="matrix(0.7431 -0.6692 0.6692 0.7431 -879.9502 1400.901)">
						<stop  offset="0" style="stop-color:#4F52FF"/>
						<stop  offset="1" style="stop-color:#4042E2"/>
					</linearGradient>
					<path style="fill:url(#SVGID_00000044875541183683832150000010256650647674417067_);" d="M1258.212,969.936
						c5.592,6.209,5.091,15.774-1.118,21.366l-91.811,82.684c-6.208,5.591-15.774,5.091-21.366-1.118l-1.115-1.238
						c-5.591-6.208-5.091-15.774,1.117-21.366l91.812-82.684c6.208-5.591,15.774-5.091,21.366,1.118L1258.212,969.936z"/>
					<g>
						
							<linearGradient id="SVGID_00000174580821529603470030000006483324856012263301_" gradientUnits="userSpaceOnUse" x1="2906.5105" y1="-4482.4272" x2="2886.4624" y2="-4380.5156" gradientTransform="matrix(0.7431 -0.6692 0.6692 0.7431 -879.9502 1400.901)">
							<stop  offset="0" style="stop-color:#4F52FF"/>
							<stop  offset="1" style="stop-color:#4042E2"/>
						</linearGradient>
						<path style="fill:url(#SVGID_00000174580821529603470030000006483324856012263301_);" d="M1394.598,1260.149
							c4.779,5.307,4.352,13.483-0.955,18.262l-0.192,0.172c-5.307,4.779-13.483,4.351-18.262-0.955l-173.021-192.121
							c-4.779-5.307-4.351-13.483,0.955-18.261l0.192-0.173c5.307-4.779,13.483-4.351,18.262,0.955L1394.598,1260.149z"/>
						
							<linearGradient id="SVGID_00000077313152504732218390000018363078869165401784_" gradientUnits="userSpaceOnUse" x1="2965.1824" y1="-4470.8789" x2="2945.1343" y2="-4368.9678" gradientTransform="matrix(0.7431 -0.6692 0.6692 0.7431 -879.9502 1400.901)">
							<stop  offset="0" style="stop-color:#4F52FF"/>
							<stop  offset="1" style="stop-color:#4042E2"/>
						</linearGradient>
						<path style="fill:url(#SVGID_00000077313152504732218390000018363078869165401784_);" d="M1439.885,1219.365
							c4.779,5.307,4.351,13.483-0.955,18.261l-0.192,0.173c-5.307,4.779-13.482,4.351-18.262-0.955l-173.021-192.12
							c-4.779-5.307-4.351-13.483,0.955-18.261l0.192-0.173c5.307-4.779,13.483-4.351,18.262,0.955L1439.885,1219.365z"/>
					</g>
				</g>
			</g>
			<g>
				
					<linearGradient id="SVGID_00000093887219892928463350000013993854065047826051_" gradientUnits="userSpaceOnUse" x1="1093.204" y1="1150.509" x2="1180.0791" y2="1433.4105">
					<stop  offset="0" style="stop-color:#09005D"/>
					<stop  offset="1" style="stop-color:#1A0F91"/>
				</linearGradient>
				<path style="fill:url(#SVGID_00000093887219892928463350000013993854065047826051_);" d="M862.02,1132.996l-12.246,11.414
					c-21.013,19.586-27.343,46.948-14.137,61.117l15.7,16.844c13.206,14.168,40.945,9.777,61.959-9.809l12.246-11.414
					c0.811-0.756,1.606-1.529,2.383-2.319l348.429-354.05l-34.204-36.698l-377.65,322.7
					C863.659,1131.502,862.831,1132.241,862.02,1132.996z M878.879,1149.154c15.821-14.746,35.748-19.079,44.51-9.679
					c8.762,9.401,3.04,28.975-12.781,43.721c-15.821,14.746-35.749,19.079-44.511,9.678
					C857.336,1183.474,863.058,1163.9,878.879,1149.154z"/>
				
					<linearGradient id="SVGID_00000041288823508126946920000008537734875270382477_" gradientUnits="userSpaceOnUse" x1="1317.1627" y1="960.3138" x2="1312.7076" y2="1089.5129">
					<stop  offset="0" style="stop-color:#09005D"/>
					<stop  offset="1" style="stop-color:#1A0F91"/>
				</linearGradient>
				<path style="fill:url(#SVGID_00000041288823508126946920000008537734875270382477_);" d="M1348.969,673.943l-71.055,66.227
					c-5.059,4.715-7.643,11.512-6.994,18.397l3.326,35.295c0.949,10.074,8.566,18.246,18.548,19.9l34.974,5.796
					c6.823,1.131,13.784-0.969,18.843-5.685l71.055-66.227c10.718-9.99,28.435-2.812,28.834,11.834
					c0.954,35.037-12.968,70.818-41.239,97.168c-51.099,47.627-123.387,40.546-169.198-8.604
					c-45.811-49.15-47.797-121.757,3.302-169.385c28.271-26.35,64.942-37.724,99.825-34.312
					C1353.772,645.775,1359.687,663.953,1348.969,673.943z"/>
				
					<linearGradient id="SVGID_00000159461301112650538910000010707189606960016545_" gradientUnits="userSpaceOnUse" x1="7015.1504" y1="-758.0255" x2="6948.3232" y2="-626.5989" gradientTransform="matrix(-0.6818 -0.7315 -0.7315 0.6818 7241.3774 1811.6133)">
					<stop  offset="0" style="stop-color:#09005D"/>
					<stop  offset="1" style="stop-color:#1A0F91"/>
				</linearGradient>
				<path style="fill:url(#SVGID_00000159461301112650538910000010707189606960016545_);" d="M1355.211,680.639l-71.055,66.227
					c-5.059,4.715-7.643,11.512-6.994,18.397l3.325,35.295c0.949,10.074,8.566,18.246,18.548,19.9l34.974,5.796
					c6.823,1.131,13.784-0.969,18.843-5.685l71.055-66.227c10.718-9.99,28.436-2.812,28.834,11.834
					c0.954,35.037-12.968,70.818-41.239,97.168c-51.099,47.627-123.387,40.546-169.198-8.604
					c-45.811-49.15-47.797-121.757,3.302-169.384c28.271-26.351,64.942-37.724,99.825-34.312
					C1360.013,652.471,1365.928,670.65,1355.211,680.639z"/>
				
					<linearGradient id="SVGID_00000065033084535042807100000006884041738659201949_" gradientUnits="userSpaceOnUse" x1="6637.5962" y1="-201.6524" x2="6570.769" y2="-70.2259" gradientTransform="matrix(-0.6818 -0.7315 -0.9067 0.8451 7425.9414 1639.6089)">
					<stop  offset="0" style="stop-color:#09005D"/>
					<stop  offset="1" style="stop-color:#1A0F91"/>
				</linearGradient>
				<path style="fill:url(#SVGID_00000065033084535042807100000006884041738659201949_);" d="M866.999,1138.338l-12.246,11.414
					c-21.013,19.586-27.343,46.949-14.137,61.117l15.7,16.844c13.206,14.169,40.945,9.777,61.959-9.809l12.246-11.414
					c0.811-0.756,1.606-1.529,2.383-2.319l348.429-354.05l-34.204-36.697l-377.65,322.7
					C868.637,1136.844,867.81,1137.582,866.999,1138.338z M883.857,1154.496c15.821-14.746,35.749-19.079,44.51-9.679
					c8.762,9.401,3.04,28.975-12.781,43.721c-15.821,14.746-35.749,19.079-44.511,9.678
					C862.314,1188.816,868.037,1169.242,883.857,1154.496z"/>
			</g>
		</g>
		<g>
			
				<linearGradient id="SVGID_00000021089155324710672680000014955427698117970317_" gradientUnits="userSpaceOnUse" x1="2652.6416" y1="485.1526" x2="1162.3986" y2="2937.7046">
				<stop  offset="0" style="stop-color:#FF928E"/>
				<stop  offset="1" style="stop-color:#FE7062"/>
			</linearGradient>
			<path style="fill:url(#SVGID_00000021089155324710672680000014955427698117970317_);" d="M2010.47,1075.705
				c137.481,24.103,279.588,30.468,416.963,2.184c62.217-12.809,122.89-32.627,180.635-59.099
				c89.406-40.986,194.981-87.952,208.438-198.735c7.521-61.913-36.95-92.181-91.35-102.857
				c-18.357-3.603-36.978-5.953-55.255-0.671c-17.147,4.957-14.177,11.658-12.894,27.973c1.335,16.97,2.657,33.941,3.979,50.914
				c2.313,29.686-41.977,43.776-63.202,56.096c-50.208,29.142-103.292,53.188-158.733,70.511
				c-132.52,41.407-273.522,42.918-410.42,27.133c-45.18-5.209-81.129,37.253-68.709,81.003
				C1966.628,1053.78,1986.282,1071.464,2010.47,1075.705z"/>
			
				<linearGradient id="SVGID_00000132063936976701320150000008902944020986905744_" gradientUnits="userSpaceOnUse" x1="2441.2588" y1="356.7089" x2="951.015" y2="2809.2625">
				<stop  offset="0" style="stop-color:#FF928E"/>
				<stop  offset="1" style="stop-color:#FE7062"/>
			</linearGradient>
			<path style="fill:url(#SVGID_00000132063936976701320150000008902944020986905744_);" d="M2122.4,1211.8l-282.777-198.785
				c-8.613-6.054-7.649-19.109,1.759-23.833l297.188-149.227c11.058-5.552,23.993,2.891,23.361,15.248
				c-35.758,123.894-39.79,238.675-17.688,345.951C2143.686,1212.06,2131.334,1218.081,2122.4,1211.8z"/>
		</g>
		<g>
			
				<linearGradient id="SVGID_00000164503712711519041430000014322623301656695201_" gradientUnits="userSpaceOnUse" x1="1681.0101" y1="2335.9375" x2="1166.4401" y2="3251.4709">
				<stop  offset="0" style="stop-color:#FF928E"/>
				<stop  offset="1" style="stop-color:#FE7062"/>
			</linearGradient>
			<path style="fill:url(#SVGID_00000164503712711519041430000014322623301656695201_);" d="M1856.201,2827.257
				c-128.793,53.8-266.005,91.317-406.236,93.994c-63.51,1.213-127.058-4.75-189.217-17.85
				c-96.239-20.282-209.567-42.833-247.1-147.929c-20.976-58.735,15.733-98.057,66.443-120.455
				c23.766-10.498,49.873-19.696,75.283-14.275c-7.941,23.688-16.28,70.507,2.522,90.182c13.413,14.035,57.385,21.198,76.023,27.04
				c55.397,17.365,112.476,29.125,170.373,33.809c138.386,11.194,276.257-18.398,406.313-63.955
				c42.922-15.035,87.343,18.464,84.867,63.875C1894.135,2796.212,1878.86,2817.791,1856.201,2827.257z"/>
			
				<linearGradient id="SVGID_00000121272392070243875350000006706823917684529853_" gradientUnits="userSpaceOnUse" x1="1938.6979" y1="2480.7693" x2="1424.13" y2="3396.2988">
				<stop  offset="0" style="stop-color:#FF928E"/>
				<stop  offset="1" style="stop-color:#FE7062"/>
			</linearGradient>
			<path style="fill:url(#SVGID_00000121272392070243875350000006706823917684529853_);" d="M1768.141,2984.133l232.033-256.201
				c7.067-7.803,3.251-20.324-6.967-22.86l-322.763-80.084c-12.009-2.98-22.767,8.106-19.428,20.02
				c62.175,112.972,91.396,224.044,93.472,333.554C1747.436,2989.076,1760.811,2992.227,1768.141,2984.133z"/>
		</g>
		<g>
			<g>
				<path style="fill:#FFFFFF;" d="M2382.401,1437.192c-0.855,0-1.71-0.352-2.323-1.044c-2.728-3.08-5.492-6.115-8.295-9.11
					c-1.171-1.253-1.106-3.214,0.144-4.385c1.253-1.175,3.214-1.109,4.385,0.144c2.842,3.035,5.645,6.115,8.412,9.234
					c1.135,1.282,1.018,3.243-0.264,4.382C2383.87,1436.934,2383.135,1437.192,2382.401,1437.192z"/>
				<path style="fill:#FFFFFF;" d="M2039.88,2198.753c-3.56,0-7.12-0.042-10.673-0.124c-1.713-0.042-3.071-1.462-3.031-3.175
					c0.039-1.687,1.423-3.031,3.103-3.031c0.023,0,0.046,0,0.072,0c8.327,0.196,16.739,0.157,25.106-0.107
					c1.592-0.14,3.146,1.285,3.198,3.002c0.055,1.71-1.289,3.146-3.002,3.198C2049.744,2198.671,2044.774,2198.753,2039.88,2198.753
					z M2095.492,2195.337c-1.543,0-2.881-1.152-3.077-2.725c-0.209-1.7,0.999-3.247,2.702-3.459
					c8.265-1.018,16.615-2.288,24.815-3.766c1.703-0.284,3.302,0.822,3.605,2.503c0.304,1.687-0.816,3.302-2.503,3.606
					c-8.314,1.498-16.779,2.783-25.161,3.818C2095.746,2195.33,2095.619,2195.337,2095.492,2195.337z M2160.521,2182.444
					c-1.361,0-2.61-0.904-2.989-2.281c-0.453-1.651,0.519-3.361,2.17-3.814c8.004-2.199,16.087-4.663,24.019-7.323
					c1.625-0.538,3.381,0.333,3.929,1.958c0.542,1.625-0.333,3.384-1.958,3.929c-8.04,2.692-16.23,5.188-24.345,7.42
					C2161.073,2182.408,2160.795,2182.444,2160.521,2182.444z M2223.025,2160.314c-1.194,0-2.333-0.695-2.842-1.86
					c-0.689-1.57,0.029-3.4,1.599-4.085c7.658-3.348,15.303-6.94,22.72-10.67c1.534-0.773,3.397-0.153,4.164,1.377
					c0.77,1.531,0.157,3.394-1.377,4.164c-7.515,3.785-15.261,7.42-23.021,10.814
					C2223.863,2160.229,2223.442,2160.314,2223.025,2160.314z M2281.71,2129.495c-1.038,0-2.052-0.519-2.64-1.465
					c-0.904-1.458-0.457-3.371,0.999-4.274c7.087-4.399,14.132-9.052,20.946-13.826c1.406-0.979,3.344-0.639,4.323,0.76
					c0.982,1.403,0.643,3.338-0.76,4.323c-6.908,4.839-14.051,9.554-21.233,14.015
					C2282.833,2129.345,2282.268,2129.495,2281.71,2129.495z M2335.316,2090.521c-0.881,0-1.756-0.375-2.369-1.1
					c-1.106-1.309-0.943-3.266,0.365-4.373c6.373-5.387,12.664-11.01,18.694-16.71c1.243-1.178,3.208-1.126,4.385,0.124
					c1.178,1.243,1.123,3.208-0.124,4.386c-6.112,5.779-12.488,11.479-18.948,16.938
					C2336.735,2090.28,2336.024,2090.521,2335.316,2090.521z M2382.659,2044.196c-0.731,0-1.462-0.258-2.052-0.777
					c-1.286-1.135-1.406-3.097-0.274-4.379c5.515-6.245,10.925-12.726,16.08-19.255c1.057-1.344,3.015-1.576,4.356-0.512
					c1.344,1.061,1.576,3.012,0.512,4.356c-5.224,6.621-10.706,13.186-16.296,19.516
					C2384.372,2043.84,2383.517,2044.196,2382.659,2044.196z M2422.798,1991.481c-0.581,0-1.168-0.163-1.694-0.506
					c-1.436-0.937-1.837-2.858-0.901-4.294c4.545-6.963,8.967-14.158,13.134-21.383c0.858-1.481,2.76-1.99,4.239-1.139
					c1.485,0.858,1.994,2.754,1.139,4.239c-4.226,7.326-8.706,14.615-13.316,21.676
					C2424.805,1990.985,2423.813,1991.481,2422.798,1991.481z M2454.932,1933.517c-0.434,0-0.878-0.091-1.302-0.287
					c-1.553-0.721-2.232-2.565-1.511-4.121c3.514-7.587,6.856-15.346,9.929-23.053c0.633-1.592,2.444-2.366,4.03-1.733
					c1.592,0.633,2.369,2.438,1.733,4.03c-3.113,7.815-6.5,15.676-10.06,23.367
					C2457.226,1932.851,2456.104,1933.517,2454.932,1933.517z M2478.417,1871.525c-0.294,0-0.591-0.042-0.888-0.13
					c-1.641-0.49-2.574-2.219-2.085-3.86c2.385-7.988,4.578-16.146,6.516-24.244c0.401-1.667,2.082-2.689,3.743-2.294
					c1.664,0.401,2.692,2.075,2.294,3.743c-1.968,8.207-4.19,16.472-6.608,24.571
					C2480.988,1870.654,2479.754,1871.525,2478.417,1871.525z M2492.748,1806.79c-0.15,0-0.3-0.01-0.453-0.033
					c-1.697-0.248-2.868-1.824-2.62-3.521c1.207-8.239,2.203-16.632,2.953-24.936c0.153-1.707,1.641-3.009,3.371-2.809
					c1.707,0.153,2.963,1.664,2.81,3.371c-0.76,8.419-1.769,16.922-2.992,25.276
					C2495.586,1805.681,2494.262,1806.79,2492.748,1806.79z M2497.567,1740.658c-1.713,0-3.103-1.387-3.103-3.103
					c-0.003-8.37-0.238-16.811-0.698-25.089c-0.098-1.71,1.214-3.175,2.924-3.27c1.661-0.062,3.175,1.214,3.27,2.924
					c0.47,8.393,0.708,16.952,0.711,25.435C2500.67,1739.268,2499.283,1740.658,2497.567,1740.658z M2492.728,1674.536
					c-1.514,0-2.839-1.109-3.067-2.65c-1.217-8.259-2.676-16.579-4.343-24.727c-0.343-1.677,0.741-3.315,2.421-3.661
					c1.664-0.346,3.318,0.737,3.661,2.421c1.687,8.259,3.168,16.691,4.402,25.06c0.248,1.697-0.924,3.273-2.617,3.524
					C2493.031,1674.526,2492.878,1674.536,2492.728,1674.536z M2478.338,1609.82c-1.335,0-2.568-0.868-2.973-2.209
					c-2.405-8.011-5.054-16.031-7.874-23.843c-0.584-1.612,0.251-3.39,1.863-3.971c1.609-0.594,3.394,0.251,3.971,1.863
					c2.858,7.919,5.544,16.048,7.985,24.163c0.493,1.641-0.438,3.374-2.079,3.867
					C2478.932,1609.777,2478.632,1609.82,2478.338,1609.82z M2454.782,1547.848c-1.172,0-2.294-0.666-2.819-1.798
					c-3.504-7.56-7.27-15.121-11.182-22.473c-0.806-1.514-0.232-3.394,1.279-4.196c1.504-0.806,3.39-0.235,4.196,1.279
					c3.968,7.453,7.782,15.114,11.339,22.779c0.721,1.553,0.046,3.4-1.511,4.121
					C2455.663,1547.757,2455.219,1547.848,2454.782,1547.848z M2422.615,1489.88c-1.015,0-2.007-0.496-2.601-1.406
					c-4.539-6.95-9.355-13.888-14.308-20.619c-1.015-1.38-0.721-3.325,0.659-4.34c1.39-1.015,3.325-0.715,4.34,0.659
					c5.022,6.826,9.903,13.858,14.504,20.906c0.937,1.436,0.535,3.358-0.901,4.294
					C2423.787,1489.717,2423.196,1489.88,2422.615,1489.88z"/>
				<path style="fill:#FFFFFF;" d="M1988.053,2195.797c-0.117,0-0.235-0.006-0.356-0.02c-4.141-0.473-8.269-1.002-12.386-1.589
					c-1.697-0.238-2.875-1.811-2.633-3.508c0.238-1.694,1.782-2.878,3.508-2.633c4.059,0.574,8.135,1.096,12.217,1.563
					c1.703,0.196,2.924,1.733,2.731,3.436C1990.95,2194.629,1989.609,2195.797,1988.053,2195.797z"/>
			</g>
			<g>
				<path style="fill:#FFFFFF;" d="M1680.054,2024.311c-0.92,0-1.827-0.405-2.441-1.184c-2.571-3.263-5.103-6.572-7.593-9.92
					c-1.021-1.377-0.738-3.318,0.636-4.343c1.377-1.028,3.318-0.734,4.343,0.636c2.457,3.302,4.95,6.565,7.489,9.789
					c1.06,1.344,0.829,3.296-0.519,4.356C1681.402,2024.092,1680.727,2024.311,1680.054,2024.311z"/>
				<path style="fill:#FFFFFF;" d="M1649.858,1981.004c-1.044,0-2.062-0.525-2.646-1.478c-4.33-7.045-8.543-14.341-12.524-21.686
					c-0.816-1.507-0.258-3.39,1.25-4.206c1.511-0.819,3.39-0.258,4.206,1.25c3.929,7.244,8.086,14.442,12.354,21.393
					c0.897,1.462,0.441,3.371-1.018,4.268C1650.974,1980.857,1650.413,1981.004,1649.858,1981.004z M1619.737,1923.127
					c-1.198,0-2.34-0.698-2.845-1.866c-0.728-1.674-1.442-3.351-2.15-5.035c-2.503-5.955-4.927-12.077-7.202-18.195
					c-0.597-1.609,0.219-3.394,1.824-3.991c1.625-0.604,3.397,0.222,3.991,1.824c2.248,6.04,4.637,12.08,7.107,17.957
					c0.698,1.661,1.406,3.318,2.121,4.966c0.682,1.573-0.039,3.4-1.609,4.082
					C1620.569,1923.046,1620.151,1923.127,1619.737,1923.127z M1598.035,1861.589c-1.361,0-2.61-0.904-2.989-2.281
					c-2.206-8.03-4.216-16.214-5.975-24.323c-0.365-1.677,0.698-3.328,2.372-3.69c1.674-0.372,3.328,0.698,3.69,2.372
					c1.736,8.001,3.72,16.074,5.896,23.996c0.453,1.654-0.519,3.361-2.17,3.815
					C1598.586,1861.554,1598.309,1861.589,1598.035,1861.589z M1585.289,1797.595c-1.543,0-2.878-1.149-3.074-2.718
					c-1.038-8.265-1.857-16.651-2.438-24.923c-0.118-1.706,1.171-3.191,2.881-3.312c1.687-0.065,3.191,1.171,3.312,2.881
					c0.571,8.158,1.377,16.426,2.398,24.584c0.215,1.7-0.992,3.25-2.692,3.465
					C1585.547,1797.588,1585.416,1797.595,1585.289,1797.595z M1581.843,1732.428c-0.02,0-0.039,0-0.059,0
					c-1.713-0.033-3.077-1.449-3.044-3.162c0.157-8.311,0.548-16.733,1.162-25.028c0.127-1.71,1.612-2.986,3.322-2.865
					c1.71,0.124,2.992,1.612,2.865,3.322c-0.604,8.184-0.989,16.488-1.142,24.688
					C1584.914,1731.078,1583.53,1732.428,1581.843,1732.428z M1587.746,1667.435c-0.166,0-0.333-0.013-0.503-0.042
					c-1.693-0.274-2.839-1.87-2.561-3.56c1.338-8.203,2.92-16.482,4.705-24.6c0.372-1.674,2.026-2.715,3.697-2.366
					c1.674,0.369,2.731,2.023,2.366,3.697c-1.762,8.011-3.325,16.175-4.647,24.267
					C1590.556,1666.355,1589.241,1667.435,1587.746,1667.435z M1602.818,1603.956c-0.307,0-0.62-0.046-0.93-0.144
					c-1.635-0.512-2.542-2.255-2.03-3.89c2.483-7.919,5.224-15.884,8.145-23.677c0.6-1.605,2.392-2.428,3.994-1.818
					c1.602,0.6,2.418,2.389,1.814,3.991c-2.878,7.688-5.58,15.548-8.034,23.363
					C1605.363,1603.108,1604.14,1603.956,1602.818,1603.956z M1626.714,1543.254c-0.447,0-0.904-0.098-1.335-0.303
					c-1.547-0.741-2.199-2.591-1.462-4.137c3.599-7.534,7.44-15.03,11.408-22.283c0.822-1.504,2.708-2.056,4.209-1.233
					c1.504,0.822,2.056,2.708,1.233,4.209c-3.912,7.156-7.701,14.553-11.251,21.983
					C1628.985,1542.604,1627.872,1543.254,1626.714,1543.254z M1658.949,1486.548c-0.591,0-1.188-0.17-1.716-0.522
					c-1.426-0.95-1.811-2.875-0.861-4.301c4.607-6.918,9.469-13.793,14.442-20.44c1.021-1.367,2.969-1.654,4.343-0.623
					c1.37,1.025,1.651,2.969,0.623,4.343c-4.904,6.555-9.698,13.339-14.246,20.159
					C1660.936,1486.062,1659.951,1486.548,1658.949,1486.548z M1698.895,1435.009c-0.737,0-1.478-0.261-2.072-0.793
					c-1.276-1.142-1.384-3.103-0.238-4.382c5.528-6.17,11.316-12.282,17.203-18.165c1.207-1.214,3.178-1.214,4.385,0
					c1.214,1.211,1.214,3.175,0,4.385c-5.805,5.805-11.512,11.835-16.968,17.924
					C1700.592,1434.66,1699.747,1435.009,1698.895,1435.009z M1745.769,1389.708c-0.884,0-1.765-0.379-2.379-1.113
					c-1.1-1.315-0.927-3.27,0.388-4.369c6.379-5.338,12.98-10.559,19.614-15.516c1.374-1.021,3.315-0.744,4.343,0.63
					c1.025,1.374,0.744,3.315-0.63,4.343c-6.542,4.888-13.052,10.037-19.347,15.3
					C1747.178,1389.47,1746.474,1389.708,1745.769,1389.708z M1798.653,1351.573c-1.041,0-2.056-0.522-2.643-1.475
					c-0.901-1.458-0.447-3.367,1.011-4.268c7.065-4.363,14.351-8.592,21.65-12.569c1.495-0.822,3.384-0.268,4.209,1.24
					c0.819,1.504,0.264,3.39-1.24,4.209c-7.202,3.925-14.39,8.099-21.363,12.4
					C1799.772,1351.423,1799.208,1351.573,1798.653,1351.573z M1856.438,1321.341c-1.194,0-2.333-0.695-2.845-1.863
					c-0.685-1.57,0.033-3.397,1.605-4.085c1.984-0.865,3.981-1.72,5.991-2.565c5.7-2.395,11.492-4.695,17.222-6.839
					c1.602-0.594,3.394,0.215,3.994,1.821c0.6,1.605-0.215,3.39-1.821,3.994c-5.652,2.114-11.369,4.382-16.991,6.745
					c-1.981,0.835-3.952,1.677-5.916,2.535C1857.274,1321.259,1856.853,1321.341,1856.438,1321.341z M1917.927,1299.501
					c-1.357,0-2.607-0.901-2.986-2.274c-0.46-1.651,0.509-3.361,2.16-3.818c8.037-2.229,16.214-4.258,24.306-6.033
					c1.677-0.365,3.328,0.688,3.697,2.366c0.365,1.674-0.692,3.328-2.366,3.697c-7.985,1.749-16.054,3.753-23.98,5.948
					C1918.482,1299.465,1918.204,1299.501,1917.927,1299.501z M1981.889,1286.612c-1.54,0-2.875-1.145-3.074-2.712
					c-0.219-1.697,0.985-3.253,2.686-3.469c8.226-1.051,16.609-1.889,24.917-2.49c1.716-0.167,3.195,1.161,3.318,2.868
					c0.124,1.71-1.162,3.194-2.868,3.318c-8.197,0.594-16.465,1.423-24.584,2.457
					C1982.153,1286.602,1982.02,1286.612,1981.889,1286.612z M2071.887,1284.106c-0.075,0-0.15-0.003-0.225-0.01
					c-8.18-0.584-16.481-0.949-24.678-1.083c-1.713-0.029-3.077-1.442-3.051-3.155c0.029-1.693,1.413-3.051,3.103-3.051
					c0.016,0,0.033,0,0.052,0c8.308,0.137,16.726,0.509,25.018,1.103c1.71,0.121,2.995,1.605,2.871,3.315
					C2074.863,1282.86,2073.499,1284.106,2071.887,1284.106z"/>
				<path style="fill:#FFFFFF;" d="M2124.52,1290.952c-0.193,0-0.385-0.016-0.581-0.055c-4.03-0.76-8.076-1.475-12.132-2.127
					c-1.694-0.274-2.842-1.867-2.571-3.557c0.274-1.694,1.863-2.829,3.557-2.571c4.115,0.666,8.213,1.387,12.302,2.16
					c1.684,0.316,2.79,1.938,2.47,3.625C2127.284,1289.914,2125.982,1290.952,2124.52,1290.952z"/>
			</g>
			<g>
				
					<linearGradient id="SVGID_00000074412981476115698400000009298322596906798004_" gradientUnits="userSpaceOnUse" x1="1936.1013" y1="1395.5139" x2="2163.3135" y2="2143.9773">
					<stop  offset="0" style="stop-color:#FF928E"/>
					<stop  offset="1" style="stop-color:#FE7062"/>
				</linearGradient>
				<path style="fill:url(#SVGID_00000074412981476115698400000009298322596906798004_);" d="M2147.885,1403.137
					c-2.14-0.955-4.651-0.447-6.252,1.266l-45.667,48.852c-30.67-5.885-62.499-6.922-94.343-2.576l-42.94-51.208
					c-1.506-1.797-3.986-2.439-6.176-1.601l-74.908,28.687c-2.189,0.84-3.604,2.974-3.526,5.316l2.251,66.792
					c-26.601,18.037-49.594,40.069-68.487,64.936l-66.617-5.85c-2.335-0.205-4.543,1.094-5.498,3.234l-32.682,73.253
					c-0.955,2.142-0.447,4.652,1.266,6.253l48.852,45.666c-5.885,30.67-6.922,62.5-2.575,94.343l-51.209,42.941
					c-1.796,1.506-2.439,3.985-1.601,6.175l28.689,74.908c0.838,2.189,2.973,3.606,5.316,3.526l66.792-2.251
					c18.036,26.601,40.068,49.595,64.936,68.487l-5.85,66.618c-0.205,2.333,1.094,4.542,3.234,5.497l73.253,32.682
					c2.141,0.957,4.652,0.447,6.252-1.265l45.666-48.853c30.67,5.886,62.5,6.922,94.344,2.576l42.941,51.209
					c1.506,1.796,3.986,2.439,6.175,1.601l74.908-28.689c2.189-0.838,3.604-2.973,3.525-5.316l-2.251-66.792
					c26.601-18.036,49.595-40.069,68.488-64.936l66.616,5.85c2.335,0.206,4.544-1.094,5.499-3.235l32.682-73.253
					c0.955-2.141,0.447-4.651-1.266-6.252l-48.851-45.666c5.885-30.67,6.921-62.5,2.575-94.343l51.209-42.941
					c1.795-1.504,2.439-3.985,1.599-6.174l-28.688-74.907c-0.839-2.189-2.973-3.605-5.316-3.527l-66.792,2.251
					c-18.036-26.599-40.069-49.594-64.935-68.487l5.849-66.616c0.205-2.335-1.093-4.542-3.235-5.499L2147.885,1403.137z"/>
				<path style="opacity:0.7;fill:#FFFFFF;" d="M2041.178,1817.01c-4.376,0-8.781-0.378-13.179-1.145
					c-19.967-3.475-37.385-14.521-49.047-31.097c-11.659-16.58-16.168-36.706-12.693-56.673
					c3.478-19.967,14.52-37.385,31.097-49.047l0,0c34.229-24.071,81.648-15.816,105.722,18.404
					c11.659,16.579,16.168,36.706,12.69,56.672c-3.475,19.97-14.521,37.388-31.097,49.05
					C2071.743,1812.265,2056.662,1817.01,2041.178,1817.01z M2040.924,1674.565c-13.235,0-26.59,3.922-38.21,12.099l0,0
					c-14.547,10.226-24.234,25.51-27.282,43.026c-3.051,17.519,0.904,35.176,11.137,49.719c10.229,14.547,25.51,24.235,43.03,27.286
					c17.519,3.048,35.176-0.907,49.716-11.137c14.547-10.23,24.235-25.51,27.286-43.03c3.051-17.519-0.904-35.176-11.137-49.719
					C2082.521,1684.41,2061.876,1674.565,2040.924,1674.565z M2000.035,1682.856h0.033H2000.035z"/>
				<path style="opacity:0.7;fill:#FFFFFF;" d="M2040.676,1940.934c-79.775,0-155.131-48.502-185.321-127.327
					c-8.902-23.246-13.121-47.158-13.117-70.684c0.01-79.758,48.512-155.112,127.327-185.298c2.731-1.047,5.485-2.033,8.255-2.956
					c9.404-3.139,19.02-5.57,28.712-7.264c1.269-0.222,2.539-0.431,3.808-0.63l1.423,9.202
					c-13.193,2.036-26.271,5.515-38.869,10.341l0,0c-97.268,37.254-146.096,146.693-108.845,243.961
					c37.254,97.271,146.7,146.099,243.961,108.845c47.118-18.045,84.392-53.36,104.949-99.438
					c10.98-24.613,16.491-50.724,16.491-76.894c0-22.818-4.19-45.679-12.595-67.63c-12.246-31.981-32.888-59.991-59.688-81.005
					l5.743-7.322c28.127,22.052,49.787,51.445,62.637,84.999c8.82,23.031,13.215,47.021,13.215,70.961
					c0,27.458-5.782,54.858-17.304,80.685c-21.572,48.349-60.679,85.4-110.121,104.336
					C2088.101,1936.714,2064.189,1940.934,2040.676,1940.934z"/>
			</g>
		</g>
		<g>
			<g>
				<path style="fill:#FFFFFF;" d="M1709.21,2042.858c-0.865,0-1.723-0.359-2.336-1.064c-2.682-3.07-5.466-6.112-8.278-9.039
					c-1.188-1.237-1.145-3.201,0.088-4.389c1.24-1.188,3.201-1.145,4.389,0.088c2.881,2.999,5.733,6.115,8.474,9.26
					c1.129,1.292,0.995,3.25-0.297,4.376C1710.662,2042.607,1709.934,2042.858,1709.21,2042.858z"/>
				<path style="fill:#FFFFFF;" d="M1533.097,2471.527c-1.609,0-2.969-1.243-3.09-2.872c-0.127-1.71,1.155-3.198,2.862-3.325
					c7.965-0.594,15.976-1.57,23.807-2.898c1.703-0.297,3.292,0.848,3.576,2.539c0.287,1.687-0.848,3.289-2.539,3.576
					c-8.021,1.364-16.224,2.363-24.381,2.969C1533.253,2471.524,1533.175,2471.527,1533.097,2471.527z M1595.434,2459.036
					c-1.302,0-2.513-0.822-2.943-2.124c-0.542-1.628,0.339-3.384,1.964-3.922c7.296-2.425,14.609-5.224,21.725-8.324l0.656-0.287
					c1.573-0.695,3.4,0.023,4.092,1.586c0.692,1.57-0.02,3.4-1.586,4.092l-0.685,0.3c-7.286,3.172-14.772,6.04-22.244,8.52
					C1596.087,2458.984,1595.757,2459.036,1595.434,2459.036z M1652.886,2431.816c-1.028,0-2.033-0.509-2.623-1.442
					c-0.917-1.449-0.49-3.364,0.959-4.281c6.728-4.265,13.333-8.898,19.627-13.77c1.354-1.048,3.302-0.8,4.353,0.555
					c1.047,1.354,0.799,3.302-0.555,4.353c-6.448,4.989-13.212,9.737-20.104,14.103
					C1654.028,2431.659,1653.454,2431.816,1652.886,2431.816z M1701.969,2391.426c-0.767,0-1.534-0.284-2.134-0.852
					c-1.243-1.178-1.295-3.142-0.117-4.385c5.479-5.785,10.745-11.891,15.643-18.149c1.057-1.351,3.002-1.589,4.356-0.532
					c1.351,1.057,1.586,3.009,0.532,4.356c-5.022,6.412-10.412,12.667-16.028,18.593
					C1703.61,2391.1,1702.791,2391.426,1701.969,2391.426z M1739.667,2340.274c-0.516,0-1.038-0.127-1.517-0.398
					c-1.495-0.839-2.023-2.731-1.185-4.226c3.903-6.94,7.525-14.148,10.762-21.425c0.698-1.563,2.526-2.274,4.098-1.573
					c1.563,0.698,2.268,2.532,1.573,4.098c-3.318,7.449-7.025,14.831-11.023,21.941
					C1741.804,2339.703,1740.754,2340.274,1739.667,2340.274z M1763.827,2281.474c-0.274,0-0.548-0.036-0.826-0.111
					c-1.651-0.454-2.624-2.16-2.17-3.814c2.108-7.671,3.876-15.545,5.253-23.399c0.297-1.687,1.915-2.777,3.596-2.519
					c1.687,0.297,2.813,1.906,2.519,3.596c-1.416,8.043-3.227,16.106-5.384,23.967
					C1766.437,2280.571,1765.187,2281.474,1763.827,2281.474z M1772.996,2218.57c-0.02,0-0.042,0-0.065,0
					c-1.713-0.039-3.074-1.455-3.038-3.168c0.039-1.821,0.059-3.648,0.059-5.472c0-6.164-0.225-12.393-0.672-18.514
					c-0.127-1.707,1.158-3.195,2.868-3.319c1.641-0.153,3.194,1.162,3.318,2.868c0.46,6.271,0.692,12.651,0.692,18.965
					c0,1.87-0.02,3.736-0.059,5.603C1776.063,2217.222,1774.679,2218.57,1772.996,2218.57z M1766.496,2155.319
					c-1.413,0-2.689-0.969-3.018-2.405c-1.798-7.776-3.978-15.545-6.48-23.093c-0.538-1.625,0.343-3.38,1.971-3.922
					c1.635-0.522,3.384,0.346,3.922,1.971c2.562,7.727,4.793,15.682,6.63,23.647c0.388,1.671-0.653,3.335-2.323,3.72
					C1766.962,2155.292,1766.727,2155.319,1766.496,2155.319z M1744.764,2095.569c-1.132,0-2.222-0.62-2.767-1.697
					c-3.619-7.11-7.606-14.122-11.858-20.847c-0.914-1.449-0.483-3.364,0.966-4.281c1.449-0.907,3.367-0.483,4.281,0.966
					c4.35,6.885,8.435,14.07,12.139,21.35c0.78,1.527,0.17,3.394-1.357,4.17C1745.717,2095.461,1745.237,2095.569,1744.764,2095.569
					z"/>
				<path style="fill:#FFFFFF;" d="M1493.549,2471.4c-0.082,0-0.166-0.003-0.251-0.01c-4.177-0.333-8.38-0.773-12.488-1.302
					c-1.697-0.219-2.897-1.775-2.679-3.475c0.219-1.693,1.72-2.894,3.475-2.679c4.007,0.516,8.109,0.943,12.188,1.27
					c1.707,0.137,2.982,1.631,2.845,3.341C1496.508,2470.166,1495.151,2471.4,1493.549,2471.4z"/>
			</g>
			<g>
				<path style="fill:#FFFFFF;" d="M1312.672,2376.194c-0.907,0-1.804-0.395-2.418-1.155c-2.653-3.282-5.227-6.63-7.655-9.946
					c-1.011-1.383-0.711-3.325,0.669-4.336c1.39-1.011,3.328-0.708,4.337,0.669c2.372,3.24,4.888,6.506,7.479,9.717
					c1.077,1.331,0.868,3.286-0.467,4.363C1314.046,2375.969,1313.354,2376.194,1312.672,2376.194z"/>
				<path style="fill:#FFFFFF;" d="M1284.613,2333.435c-1.119,0-2.199-0.607-2.754-1.667c-2.914-5.576-5.658-11.31-8.154-17.043
					c-0.702-1.615-1.39-3.237-2.059-4.862c-0.649-1.586,0.108-3.397,1.693-4.049c1.573-0.643,3.394,0.104,4.049,1.694
					c0.649,1.586,1.318,3.162,2.007,4.738c2.438,5.603,5.117,11.202,7.965,16.651c0.793,1.517,0.206,3.39-1.315,4.187
					C1285.589,2333.321,1285.096,2333.435,1284.613,2333.435z M1262.434,2274.938c-1.393,0-2.659-0.946-3.008-2.359
					c-1.922-7.786-3.505-15.764-4.699-23.706c-0.255-1.697,0.91-3.276,2.604-3.531c1.71-0.241,3.279,0.914,3.531,2.604
					c1.168,7.756,2.712,15.545,4.588,23.145c0.411,1.664-0.604,3.345-2.268,3.756
					C1262.93,2274.909,1262.682,2274.938,1262.434,2274.938z M1254.939,2212.833c-0.003,0-0.003,0-0.007,0
					c-1.713-0.003-3.1-1.393-3.097-3.11c0.013-8.034,0.405-16.159,1.162-24.143c0.16-1.703,1.645-2.992,3.384-2.796
					c1.707,0.163,2.956,1.677,2.796,3.384c-0.741,7.792-1.122,15.721-1.135,23.569
					C1258.039,2211.446,1256.649,2212.833,1254.939,2212.833z M1262.63,2150.754c-0.248,0-0.502-0.029-0.754-0.091
					c-1.661-0.415-2.676-2.098-2.261-3.762c1.938-7.776,4.262-15.565,6.911-23.154c0.565-1.619,2.333-2.47,3.955-1.906
					c1.615,0.564,2.47,2.336,1.906,3.955c-2.588,7.407-4.859,15.013-6.748,22.606
					C1265.286,2149.811,1264.02,2150.754,1262.63,2150.754z M1284.916,2092.313c-0.486,0-0.982-0.114-1.442-0.359
					c-1.517-0.799-2.098-2.676-1.299-4.19c3.756-7.13,7.87-14.139,12.23-20.834c0.933-1.436,2.862-1.84,4.294-0.907
					c1.436,0.937,1.84,2.858,0.907,4.294c-4.258,6.536-8.275,13.378-11.943,20.339
					C1287.109,2091.709,1286.032,2092.313,1284.916,2092.313z M1320.519,2040.9c-0.734,0-1.472-0.258-2.062-0.783
					c-1.279-1.139-1.397-3.1-0.258-4.382c5.335-5.997,11.01-11.812,16.867-17.284c1.246-1.168,3.211-1.109,4.386,0.15
					c1.168,1.253,1.103,3.214-0.15,4.385c-5.717,5.338-11.254,11.016-16.462,16.873
					C1322.226,2040.548,1321.374,2040.9,1320.519,2040.9z M1367.445,1999.57c-0.989,0-1.961-0.473-2.565-1.351
					c-0.966-1.413-0.607-3.345,0.809-4.314c6.604-4.519,13.516-8.797,20.547-12.709c1.501-0.829,3.39-0.294,4.219,1.204
					c0.832,1.495,0.294,3.384-1.204,4.219c-6.862,3.818-13.61,7.995-20.058,12.409
					C1368.659,1999.394,1368.049,1999.57,1367.445,1999.57z M1422.93,1970.709c-1.253,0-2.434-0.767-2.904-2.01
					c-0.604-1.602,0.206-3.394,1.811-3.997c7.515-2.829,15.245-5.342,22.982-7.472c1.641-0.454,3.358,0.516,3.815,2.17
					c0.453,1.651-0.516,3.358-2.17,3.815c-7.551,2.079-15.101,4.532-22.44,7.296
					C1423.664,1970.644,1423.296,1970.709,1422.93,1970.709z M1483.701,1955.888c-1.55,0-2.891-1.162-3.077-2.738
					c-0.202-1.703,1.015-3.247,2.715-3.446c7.958-0.943,16.07-1.521,24.114-1.72c1.638-0.023,3.136,1.318,3.178,3.028
					c0.042,1.713-1.315,3.136-3.028,3.178c-7.848,0.193-15.767,0.757-23.533,1.674
					C1483.946,1955.882,1483.822,1955.888,1483.701,1955.888z"/>
				<path style="fill:#FFFFFF;" d="M1558.656,1958.025c-0.179,0-0.359-0.016-0.542-0.049c-3.955-0.695-8.03-1.315-12.116-1.834
					c-1.7-0.215-2.904-1.769-2.686-3.469c0.215-1.7,1.769-2.888,3.469-2.685c4.183,0.532,8.357,1.165,12.409,1.88
					c1.687,0.297,2.816,1.906,2.516,3.593C1561.443,1956.965,1560.134,1958.025,1558.656,1958.025z"/>
			</g>
			<g>
				
					<linearGradient id="SVGID_00000038371417172824191380000001429827435789426857_" gradientUnits="userSpaceOnUse" x1="1471.308" y1="2038.0442" x2="1558.183" y2="2385.5452">
					<stop  offset="0" style="stop-color:#FF928E"/>
					<stop  offset="1" style="stop-color:#FE7062"/>
				</linearGradient>
				<path style="fill:url(#SVGID_00000038371417172824191380000001429827435789426857_);" d="M1572.73,2019.968
					c-1.218-0.524-2.635-0.218-3.528,0.763l-25.471,27.975c-17.394-3.101-35.408-3.451-53.39-0.755l-24.672-28.649
					c-0.865-1.006-2.273-1.35-3.505-0.86l-42.162,16.785c-1.232,0.491-2.017,1.709-1.955,3.033l1.77,37.768
					c-14.914,10.401-27.758,23.036-38.26,37.244l-37.729-2.814c-1.322-0.099-2.562,0.653-3.086,1.871l-17.943,41.683
					c-0.525,1.219-0.219,2.635,0.762,3.528l27.975,25.47c-3.101,17.393-3.451,35.407-0.755,53.389l-28.649,24.673
					c-1.005,0.865-1.351,2.273-0.86,3.505l16.786,42.163c0.491,1.232,1.709,2.018,3.034,1.955l37.768-1.77
					c10.401,14.914,23.036,27.758,37.244,38.26l-2.814,37.729c-0.098,1.322,0.653,2.562,1.871,3.086l41.683,17.943
					c1.218,0.525,2.635,0.219,3.528-0.763l25.47-27.975c17.394,3.103,35.407,3.451,53.389,0.756l24.673,28.65
					c0.865,1.004,2.273,1.35,3.505,0.86l42.162-16.786c1.232-0.49,2.017-1.708,1.955-3.033l-1.77-37.768
					c14.914-10.4,27.758-23.035,38.261-37.244l37.729,2.814c1.322,0.099,2.562-0.653,3.086-1.87l17.944-41.683
					c0.524-1.218,0.218-2.634-0.762-3.527l-27.975-25.47c3.102-17.394,3.451-35.408,0.755-53.389l28.65-24.673
					c1.005-0.864,1.35-2.272,0.859-3.505l-16.785-42.162c-0.491-1.232-1.709-2.018-3.034-1.956l-37.767,1.771
					c-10.401-14.914-23.036-27.758-37.244-38.261l2.814-37.728c0.099-1.323-0.653-2.562-1.871-3.087L1572.73,2019.968z"/>
				<path style="opacity:0.7;fill:#FFFFFF;" d="M1514.843,2256.887c-13.946,0-27.7-6.451-36.481-18.59
					c-7.035-9.727-9.861-21.614-7.958-33.469c1.906-11.855,8.311-22.257,18.038-29.296c9.73-7.032,21.605-9.864,33.472-7.958
					c11.855,1.906,22.257,8.311,29.296,18.038c7.035,9.727,9.861,21.615,7.958,33.469c-1.906,11.854-8.311,22.257-18.038,29.296
					C1533.185,2254.124,1523.973,2256.887,1514.843,2256.887z M1514.71,2176.307c-7.44,0-14.667,2.326-20.812,6.771
					c-7.714,5.58-12.794,13.829-14.302,23.226c-1.511,9.401,0.731,18.824,6.311,26.538c5.58,7.714,13.829,12.794,23.226,14.305
					c9.398,1.504,18.831-0.737,26.542-6.314c7.714-5.58,12.794-13.829,14.302-23.226c1.511-9.401-0.731-18.824-6.311-26.538
					c-5.58-7.714-13.829-12.794-23.23-14.302C1518.524,2176.457,1516.609,2176.307,1514.71,2176.307z"/>
				<path style="opacity:0.7;fill:#FFFFFF;" d="M1514.458,2327.088c-15.323,0-30.62-3.123-45.118-9.365
					c-28.007-12.057-49.644-34.298-60.921-62.628c-5.498-13.809-8.099-28.062-8.099-42.09c0-45.389,27.259-88.409,71.93-106.196
					h0.003c7.081-2.819,14.442-4.934,21.895-6.294c0.499-0.091,1.002-0.179,1.501-0.261l1.547,9.176
					c-7.319,1.234-14.553,3.26-21.503,6.027h0.003c-53.713,21.386-80.013,82.483-58.63,136.193
					c10.36,26.023,30.229,46.449,55.955,57.524c25.726,11.075,54.222,11.473,80.238,1.109c41.033-16.338,66.07-55.847,66.07-97.539
					c0.003-12.883-2.389-25.974-7.436-38.654c-7.032-17.663-18.691-33.058-33.717-44.524l5.645-7.401
					c16.367,12.491,29.064,29.253,36.719,48.479c5.498,13.806,8.099,28.062,8.099,42.09c-0.003,45.392-27.26,88.409-71.934,106.196
					C1543.036,2324.374,1528.737,2327.088,1514.458,2327.088z"/>
			</g>
		</g>
		<g>
			
				<linearGradient id="SVGID_00000121991437334602659020000011225653405390911889_" gradientUnits="userSpaceOnUse" x1="8102.5444" y1="2340.7002" x2="8264.4902" y2="2340.7002" gradientTransform="matrix(-1 0 0 1 11269.0146 0)">
				<stop  offset="0" style="stop-color:#FEBBBA"/>
				<stop  offset="1" style="stop-color:#FF928E"/>
			</linearGradient>
			<path style="fill:url(#SVGID_00000121991437334602659020000011225653405390911889_);" d="M3108.181,2257.236
				c16.614,17.733,41.075,33.056,58.289,42.612c-25.706,31.775-60.492,63.597-106.541,94.742l-13.179,29.575l-42.227-50.61
				C3004.524,2373.555,3080.293,2335.849,3108.181,2257.236z"/>
			
				<linearGradient id="SVGID_00000052802970131917093360000006857677112852344722_" gradientUnits="userSpaceOnUse" x1="5332.0488" y1="5222.8262" x2="5604.3696" y2="4840.2412" gradientTransform="matrix(-1 0 0 1 10501.2461 0)">
				<stop  offset="0" style="stop-color:#FF928E"/>
				<stop  offset="1" style="stop-color:#FE7062"/>
			</linearGradient>
			<path style="fill:url(#SVGID_00000052802970131917093360000006857677112852344722_);" d="M2720.629,1977.177
				c13.614-17.066,25.542-35.359,35.519-54.208c13.935-26.326,65.502-48.38,69.31-78.108
				c94.228,16.383,189.405,21.616,257.874,35.892c19.664,4.1,38.156,12.335,51.29,27.534
				c52.082,60.271,166.367,225.285,31.849,391.56c-17.214-9.555-41.675-24.879-58.289-42.611
				c14.882-41.953,16.101-95.565-15.089-161.307c-1.065,5.211-2.383,10.37-3.984,15.446
				c-42.987,136.188-45.281,249.519-45.185,275.639c0.014,3.546-2.116,6.739-5.409,8.059c-56.577,22.672-165.484,9.178-202.042,3.73
				c-6.704-0.999-11.213-7.239-10.287-13.953c17.943-129.99-74.14-343.828-98.461-397.388
				C2725.973,1983.609,2723.554,1980.14,2720.629,1977.177z"/>
			
				<linearGradient id="SVGID_00000176725868406287426060000002776261906585996192_" gradientUnits="userSpaceOnUse" x1="2986.7944" y1="1693.5092" x2="2935.0032" y2="1887.3083">
				<stop  offset="0" style="stop-color:#FEBBBA"/>
				<stop  offset="1" style="stop-color:#FF928E"/>
			</linearGradient>
			<path style="fill:url(#SVGID_00000176725868406287426060000002776261906585996192_);" d="M2985.545,1755.694l10.904,111.403
				c0,0-63.811,22.074-109.393-10.088l33.183-104.446L2985.545,1755.694z"/>
			
				<linearGradient id="SVGID_00000183210818799714246510000016601335283932455561_" gradientUnits="userSpaceOnUse" x1="6452.6011" y1="4834.9863" x2="4962.355" y2="7287.543" gradientTransform="matrix(-1 0 0 1 11269.0146 0)">
				<stop  offset="0" style="stop-color:#E1473D"/>
				<stop  offset="1" style="stop-color:#E9605A"/>
			</linearGradient>
			<path style="fill:url(#SVGID_00000183210818799714246510000016601335283932455561_);" d="M3099.877,2082.713
				c18.895-54.406,14.943-117.472,13.671-132.268c-0.152-1.774-1.739-3.051-3.508-2.849l0,0c-1.701,0.194-2.939,1.687-2.792,3.393
				c1.234,14.304,5.176,76.345-13.351,129.659c-0.566,1.629,0.255,3.399,1.875,3.991l0.003,0.001
				C3097.436,2085.246,3099.298,2084.384,3099.877,2082.713z"/>
			<g>
				
					<linearGradient id="SVGID_00000114039122704403653330000001941909774505690240_" gradientUnits="userSpaceOnUse" x1="5454.8979" y1="5310.2568" x2="5727.2183" y2="4927.6714" gradientTransform="matrix(-1 0 0 1 10501.2461 0)">
					<stop  offset="0" style="stop-color:#FF928E"/>
					<stop  offset="1" style="stop-color:#FE7062"/>
				</linearGradient>
				<path style="fill:url(#SVGID_00000114039122704403653330000001941909774505690240_);" d="M2470.985,1982.438
					c107.552,53.89,194.941-56.758,252.26-101.931c75.676-59.64,134.567-30.625,134.567-30.625l-80.705,154.027
					c-143.437,173.591-252.913,98.41-321.998,51.577C2453.91,2025.736,2461.86,2000.838,2470.985,1982.438z"/>
				
					<linearGradient id="SVGID_00000180360846492125092870000006539626618967809719_" gradientUnits="userSpaceOnUse" x1="8030.2607" y1="2004.0701" x2="8136.5532" y2="2004.0701" gradientTransform="matrix(-1 0 0 1 10501.2461 0)">
					<stop  offset="0" style="stop-color:#FEBBBA"/>
					<stop  offset="1" style="stop-color:#FF928E"/>
				</linearGradient>
				<path style="fill:url(#SVGID_00000180360846492125092870000006539626618967809719_);" d="M2384.867,1955.119L2384.867,1955.119
					c54.696,18.559,48.321,21.648,86.118,27.319c-9.125,18.4-17.075,43.298-15.876,73.049
					c-49.592-23.441-80.683-51.577-80.683-51.577c-14.78-7.056-9.657-30.248-4.542-45.045
					C2372.061,1952.568,2379.98,1950.589,2384.867,1955.119z"/>
			</g>
			<g>
				
					<linearGradient id="SVGID_00000003785240369195189230000004018754707369066883_" gradientUnits="userSpaceOnUse" x1="2353.1311" y1="5536.1289" x2="2304.0833" y2="5374.3569" gradientTransform="matrix(-0.746 -0.6659 -0.6659 0.746 8313.1855 -803.1727)">
					<stop  offset="0" style="stop-color:#FEBBBA"/>
					<stop  offset="1" style="stop-color:#FF928E"/>
				</linearGradient>
				<path style="fill:url(#SVGID_00000003785240369195189230000004018754707369066883_);" d="M2896.399,1656.967
					c0,0-47.391,89.209-41.316,125.245c6.074,36.036,64.808,33.449,116.097,4.182l35.84-96.326L2896.399,1656.967z"/>
				
					<linearGradient id="SVGID_00000165235575694446261030000002272680374361741501_" gradientUnits="userSpaceOnUse" x1="2304.3608" y1="5255.0581" x2="2345.3892" y2="5489.0708" gradientTransform="matrix(-0.746 -0.6659 -0.6659 0.746 8313.1855 -803.1727)">
					<stop  offset="0" style="stop-color:#09005D"/>
					<stop  offset="1" style="stop-color:#1A0F91"/>
				</linearGradient>
				<path style="fill:url(#SVGID_00000165235575694446261030000002272680374361741501_);" d="M2968.913,1739.088
					c-2.084-0.924-2.854-3.474-1.605-5.382c3.797-5.8,10.914-17.635,13.185-27.994c0,0,8.52-5.456-21.684-12.686
					c-30.203-7.229-75.244-18.451-84.711-44.16c-9.231-25.064,40.276-57.6,78.968-7.375c1.472,1.911-20.898-28.546-19.429-30.458
					c6.344-8.257,23.019-25.391,46.171-15.003c21.666,9.721,24.108,25.597,23.809,33.6c-0.088,2.354,2.017,4.184,4.331,3.742
					c10.954-2.088,37.241-3.883,49.51,23.082c10.106,22.211,3.537,34.785-2.444,40.935c-1.938,1.991-1.089,5.273,1.568,6.086
					c7.2,2.204,4.778-1.31,3.848,15.557c-1.287,23.317-15.639,30.881-23.062,29.819c-1.215-0.175-2.44,0.243-3.264,1.154
					c-6.364,7.043-35.039,36.948-66.074,40.553c-2.687,0.311-4.77-2.342-3.889-4.9l13.43-39.042
					c0.624-1.813-0.244-3.802-1.997-4.579L2968.913,1739.088z"/>
				
					<linearGradient id="SVGID_00000130610063013137103450000003217267550057650365_" gradientUnits="userSpaceOnUse" x1="2302.9927" y1="5535.3765" x2="2258.863" y2="5389.8262" gradientTransform="matrix(-0.746 -0.6659 -0.6659 0.746 8313.1855 -803.1727)">
					<stop  offset="0" style="stop-color:#FEBBBA"/>
					<stop  offset="1" style="stop-color:#FF928E"/>
				</linearGradient>
				<path style="fill:url(#SVGID_00000130610063013137103450000003217267550057650365_);" d="M2963.514,1744.629
					c0,0,33.743-23.15,36.208-3.654c2.465,19.496-30.386,28.24-46.657,20.972L2963.514,1744.629z"/>
			</g>
			<g>
				<path style="fill:#91B3FA;" d="M2354.861,3060.719l0.698,44.016c1.197,75.531,43.451,136.105,94.378,135.298l60.545-0.959
					c50.927-0.807,91.241-62.69,90.044-138.221l-0.698-44.017c-0.047-2.915-0.154-5.829-0.327-8.738l-77.022-1304.022
					l-131.906,2.091l-35.663,1305.808C2354.833,3054.888,2354.815,3057.805,2354.861,3060.719z M2416.109,3056.289
					c-0.902-56.866,25.759-103.399,59.548-103.935c33.79-0.535,61.913,45.129,62.814,101.996
					c0.901,56.865-25.761,103.399-59.55,103.935S2417.01,3113.154,2416.109,3056.289z"/>
				<path style="fill:#91B3FA;" d="M2316.997,1301.28l4.048,255.4c0.288,18.185,9,35.206,23.583,46.073l74.751,55.709
					c21.337,15.902,50.708,15.436,71.53-1.134l72.948-58.05c14.231-11.324,22.399-28.612,22.111-46.797l-4.048-255.401
					c-0.611-38.523,44.623-60.457,73.911-35.426c70.068,59.882,115.373,150.111,116.984,251.731
					c2.911,183.67-138.303,312.288-314.969,315.087c-176.666,2.8-321.885-121.278-324.795-304.948
					c-1.61-101.619,40.813-193.239,108.948-255.311C2270.481,1242.266,2316.387,1262.756,2316.997,1301.28z"/>
				<path style="fill:#BDD0FB;" d="M2341.067,1300.898l4.048,255.401c0.288,18.184,9,35.205,23.583,46.073l74.752,55.709
					c21.337,15.901,50.707,15.436,71.529-1.134l72.948-58.05c14.231-11.324,22.399-28.613,22.111-46.797l-4.048-255.401
					c-0.61-38.524,44.623-60.458,73.912-35.426c70.067,59.883,115.373,150.112,116.983,251.731
					c2.911,183.67-138.303,312.287-314.969,315.087c-176.666,2.799-321.885-121.278-324.796-304.949
					c-1.61-101.619,40.814-193.238,108.948-255.311C2294.551,1241.885,2340.457,1262.375,2341.067,1300.898z"/>
				<g>
					<path style="fill:#BDD0FB;" d="M2374.061,3060.415l0.698,44.017c1.197,75.531,43.451,136.105,94.378,135.298l60.545-0.959
						c50.928-0.808,91.241-62.69,90.044-138.221l-0.698-44.016c-0.046-2.915-0.155-5.829-0.327-8.738l-77.022-1304.022
						l-131.906,2.091l-35.663,1305.808C2374.033,3054.584,2374.015,3057.5,2374.061,3060.415z M2435.309,3055.984
						c-0.902-56.866,25.759-103.399,59.548-103.935c33.79-0.535,61.913,45.129,62.814,101.996
						c0.901,56.866-25.761,103.399-59.55,103.935C2464.332,3158.515,2436.21,3112.85,2435.309,3055.984z"/>
				</g>
			</g>
			
				<linearGradient id="SVGID_00000127760664508720028290000011908582990279244692_" gradientUnits="userSpaceOnUse" x1="2362.9624" y1="1982.4951" x2="2435.6206" y2="1982.4951">
				<stop  offset="0" style="stop-color:#FEBBBA"/>
				<stop  offset="1" style="stop-color:#FF928E"/>
			</linearGradient>
			<path style="fill:url(#SVGID_00000127760664508720028290000011908582990279244692_);" d="M2365.021,1999.939l6.019,12.692
				c0.953,2.01,2.882,3.426,5.094,3.662c18.893,2.012,36.334-0.471,52.728-6.201c5.816-2.033,8.512-8.815,5.538-14.212
				c-6.863-12.453-15.08-24.481-25.016-35.969c-3.244-3.75-7.499-6.501-12.28-7.816l-13.252-3.646
				c-5.544-1.525-11.475,0.991-14.084,6.114c-6.053,11.886-7.862,25.396-6.242,40.217
				C2363.721,1996.568,2364.25,1998.315,2365.021,1999.939z"/>
			
				<linearGradient id="SVGID_00000096773259316008103740000002084000599774821025_" gradientUnits="userSpaceOnUse" x1="8255.3555" y1="3173.8772" x2="8376.7891" y2="3173.8772" gradientTransform="matrix(-1 0 0 1 11269.0146 0)">
				<stop  offset="0" style="stop-color:#09005D"/>
				<stop  offset="1" style="stop-color:#1A0F91"/>
			</linearGradient>
			<path style="fill:url(#SVGID_00000096773259316008103740000002084000599774821025_);" d="M2892.227,3217.116
				c-0.014-0.904,0.046-1.82,0.278-2.743c13.677-54.224,81.56-87.998,81.56-87.998l26.9,2.109
				c15.466,47.792,13.478,77.103,10.994,90.159c-0.069,0.366-0.18,0.714-0.277,1.068
				C2989.494,3221.693,2943.821,3222.988,2892.227,3217.116z"/>
			<path style="fill:#91B3FA;" d="M3011.683,3219.711c-1.198,4.36-4.417,7.754-8.536,8.62c-31.565,6.638-81.734,1.296-102.799-1.458
				c-4.647-0.608-8.043-4.905-8.121-9.758C2943.821,3222.988,2989.494,3221.693,3011.683,3219.711z"/>
			<path style="fill:#91B3FA;" d="M2765.705,3219.16c29.708-0.831,45.075-4.33,53.019-7.577c0.018,2.954,0.001,5.96-0.095,9.075
				c-0.103,3.326-2.566,5.983-5.598,5.964l-163.119-1.053c-5.206-0.034-8.248-6.071-5.992-10.844
				C2665.308,3216.492,2719.781,3220.445,2765.705,3219.16z"/>
			
				<linearGradient id="SVGID_00000168834643085876432200000002353744628031945882_" gradientUnits="userSpaceOnUse" x1="8450.29" y1="3177.1072" x2="8625.0938" y2="3177.1072" gradientTransform="matrix(-1 0 0 1 11269.0146 0)">
				<stop  offset="0" style="stop-color:#09005D"/>
				<stop  offset="1" style="stop-color:#1A0F91"/>
			</linearGradient>
			<path style="fill:url(#SVGID_00000168834643085876432200000002353744628031945882_);" d="M2643.921,3214.725
				c0.197-0.416,0.366-0.839,0.646-1.23c14.405-20.129,51.096-60.211,123.596-77.595l34.781-1.098c0,0,15.488,26.918,15.781,76.781
				c-7.944,3.246-23.311,6.746-53.019,7.577C2719.781,3220.445,2665.308,3216.492,2643.921,3214.725z"/>
			
				<linearGradient id="SVGID_00000071552465562770275630000010437557766893652610_" gradientUnits="userSpaceOnUse" x1="3066.5815" y1="1849.4297" x2="2839.3689" y2="3266.1609">
				<stop  offset="0" style="stop-color:#09005D"/>
				<stop  offset="1" style="stop-color:#1A0F91"/>
			</linearGradient>
			<path style="fill:url(#SVGID_00000071552465562770275630000010437557766893652610_);" d="M2837.297,2363.012
				c0,0-93.69,349.699-92.173,779.547c0.028,7.838,14.965,6.484,22.123,8.099c10.547,2.38,26.052,5.206,38.887,4.821
				c6.852-0.206,12.58-5.651,13.732-12.89c11.762-73.907,79.264-490.265,117.725-557.859c0,0,14.758,368.339,6.67,560.726
				c-0.201,4.784,13.614,11.421,18.053,11.971c6.735,0.834,17.508,1.467,31.22-0.093c5.205-0.593,19.382,6.202,20.125,0.651
				c8.378-62.55,46.624-445.88,44.573-714.085c-0.115-15.125-37.331-80.887-37.331-80.887H2837.297z"/>
			
				<linearGradient id="SVGID_00000150088400535112603260000013945586391893245828_" gradientUnits="userSpaceOnUse" x1="8347.6338" y1="2440.6785" x2="8285.4258" y2="2551.3889" gradientTransform="matrix(-1 0 0 1 11269.0146 0)">
				<stop  offset="0" style="stop-color:#09005D"/>
				<stop  offset="1" style="stop-color:#1A0F91"/>
			</linearGradient>
			<path style="fill:url(#SVGID_00000150088400535112603260000013945586391893245828_);" d="M2940.674,2561.818
				c1.406,0,2.691-0.944,3.058-2.369c6.956-26.831,59.049-56.316,59.574-56.612c1.523-0.854,2.066-2.781,1.211-4.306
				c-0.856-1.523-2.774-2.068-4.306-1.211c-2.239,1.256-54.971,31.106-62.601,60.541c-0.438,1.691,0.578,3.418,2.268,3.855
				C2940.142,2561.786,2940.411,2561.818,2940.674,2561.818z"/>
			
				<linearGradient id="SVGID_00000069384283441047904800000006359847339271109297_" gradientUnits="userSpaceOnUse" x1="3008.3259" y1="1839.9272" x2="2781.0544" y2="3257.0251">
				<stop  offset="0" style="stop-color:#09005D"/>
				<stop  offset="1" style="stop-color:#1A0F91"/>
			</linearGradient>
			<path style="fill:url(#SVGID_00000069384283441047904800000006359847339271109297_);" d="M2833.688,2056.377h130.814
				c7.805,0,26.593,5.379,28.364,12.98l48.45,127.523l10.35,83.355l6.567,163.664l-237.805-9.259l-16.119-237.76l22.149-134.367
				C2827.04,2058.974,2830.101,2056.377,2833.688,2056.377z"/>
			
				<linearGradient id="SVGID_00000098222498305768993070000016232490496405583793_" gradientUnits="userSpaceOnUse" x1="2867.365" y1="1816.755" x2="2634.6572" y2="3267.7507">
				<stop  offset="0" style="stop-color:#09005D"/>
				<stop  offset="1" style="stop-color:#1A0F91"/>
			</linearGradient>
			<path style="fill:url(#SVGID_00000098222498305768993070000016232490496405583793_);" d="M2830.752,2081.77l-4.464-237.021
				c-0.038-2.027,1.767-3.594,3.768-3.272l30.476,4.904c3.519,0.566,6.057,3.678,5.904,7.239l-4.926,227.894
				c-0.04,1.845-1.547,3.32-3.393,3.32h-24.244C2832.172,2084.834,2830.784,2083.471,2830.752,2081.77z"/>
			
				<linearGradient id="SVGID_00000008853930374923741060000002264188859014307214_" gradientUnits="userSpaceOnUse" x1="3025.5503" y1="1840.3015" x2="2775.6531" y2="3398.4775">
				<stop  offset="0" style="stop-color:#09005D"/>
				<stop  offset="1" style="stop-color:#1A0F91"/>
			</linearGradient>
			<path style="fill:url(#SVGID_00000008853930374923741060000002264188859014307214_);" d="M2962.148,2086.053
				c-3.025-0.673-4.93-3.673-4.251-6.697l46.207-206.011c0.908-3.326,4.077-5.516,7.51-5.189l30.887,2.945
				c4.476,0.427,7.355,4.953,5.843,9.188l-63.051,206.243c-0.754,2.468-3.281,3.94-5.8,3.38L2962.148,2086.053z"/>
			
				<linearGradient id="SVGID_00000085942473061345674170000003210755527429937062_" gradientUnits="userSpaceOnUse" x1="2891.7183" y1="1947.6594" x2="2864.9875" y2="2023.3967">
				<stop  offset="0" style="stop-color:#4F52FF"/>
				<stop  offset="1" style="stop-color:#4042E2"/>
			</linearGradient>
			<circle style="fill:url(#SVGID_00000085942473061345674170000003210755527429937062_);" cx="2848.34" cy="2070.565" r="8.063"/>
			
				<linearGradient id="SVGID_00000145739278051233310710000013330768257763484305_" gradientUnits="userSpaceOnUse" x1="3015.3484" y1="1949.3114" x2="2988.6177" y2="2025.0487">
				<stop  offset="0" style="stop-color:#4F52FF"/>
				<stop  offset="1" style="stop-color:#4042E2"/>
			</linearGradient>
			<circle style="fill:url(#SVGID_00000145739278051233310710000013330768257763484305_);" cx="2971.97" cy="2072.217" r="8.063"/>
			
				<linearGradient id="SVGID_00000082353693500567439090000001171031903965929633_" gradientUnits="userSpaceOnUse" x1="3145.7026" y1="653.4471" x2="3057.218" y2="1235.9735">
				<stop  offset="0" style="stop-color:#53D8FF"/>
				<stop  offset="1" style="stop-color:#3840F7"/>
			</linearGradient>
			<path style="opacity:0.34;fill:url(#SVGID_00000082353693500567439090000001171031903965929633_);" d="M2847.517,2129.608
				v134.405c0,3.46,2.749,6.295,6.208,6.401l114.163,3.505c3.612,0.111,6.601-2.787,6.601-6.401v-137.91
				c0-3.537-2.867-6.404-6.404-6.404h-114.163C2850.384,2123.204,2847.517,2126.071,2847.517,2129.608z"/>
		</g>
	</g>
</g>
</svg>
